{
.appVersion = "1143";
DisplayStrings = (
m,
Cmok,
s,
"/caron",
P,
x
);
date = "2018-05-21 11:32:23 +0000";
familyName = Zenden;
fontMaster = (
{
ascender = 800;
capHeight = 700;
descender = -200;
id = "3D764B9D-F2BF-4097-BA7B-376B3300FA34";
xHeight = 520;
}
);
glyphs = (
{
glyphname = A;
lastChange = "2018-05-21 14:01:56 +0000";
layers = (
{
layerId = "3D764B9D-F2BF-4097-BA7B-376B3300FA34";
paths = (
{
closed = 1;
nodes = (
"613 700 LINE",
"357 700 LINE",
"367 594 LINE",
"593 0 LINE",
"750 0 LINE",
"869 0 LINE",
"881 19 LINE"
);
},
{
closed = 1;
nodes = (
"418 700 LINE",
"355 700 LINE",
"99 46 LINE",
"129 0 LINE",
"172 0 LINE",
"430 681 LINE"
);
},
{
closed = 1;
nodes = (
"946 0 LINE",
"946 70 LINE",
"488 70 LINE",
"488 0 LINE"
);
},
{
closed = 1;
nodes = (
"290 0 LINE",
"290 70 LINE",
"20 70 LINE",
"20 0 LINE"
);
},
{
closed = 1;
nodes = (
"222 202 LINE",
"554 202 LINE",
"554 272 LINE",
"222 272 LINE"
);
},
{
closed = 1;
nodes = (
"236 630 LINE",
"568 630 LINE",
"568 700 LINE",
"236 700 LINE"
);
}
);
width = 966;
},
{
associatedMasterId = "3D764B9D-F2BF-4097-BA7B-376B3300FA34";
layerId = "B6B39B56-4B16-4254-9B01-D41AD7250670";
name = "May 21 18, 15:49";
paths = (
{
closed = 1;
nodes = (
"603 701 LINE",
"347 701 LINE",
"357 595 LINE",
"583 1 LINE",
"740 1 LINE",
"859 1 LINE",
"871 20 LINE"
);
},
{
closed = 1;
nodes = (
"101 1 LINE",
"164 1 LINE",
"420 655 LINE",
"390 701 LINE",
"347 701 LINE",
"89 20 LINE"
);
},
{
closed = 1;
nodes = (
"936 0 LINE",
"936 70 LINE",
"458 70 LINE",
"458 0 LINE"
);
},
{
closed = 1;
nodes = (
"290 0 LINE",
"290 70 LINE",
"20 70 LINE",
"20 0 LINE"
);
}
);
width = 956;
}
);
leftMetricsKey = O;
rightMetricsKey = O;
unicode = 0041;
},
{
glyphname = B;
lastChange = "2018-05-21 14:19:25 +0000";
layers = (
{
components = (
{
name = I;
}
);
layerId = "3D764B9D-F2BF-4097-BA7B-376B3300FA34";
paths = (
{
closed = 1;
nodes = (
"424 0 LINE",
"649 0 LINE SMOOTH",
"802 0 OFFCURVE",
"980 34 OFFCURVE",
"980 206 CURVE SMOOTH",
"980 344 OFFCURVE",
"835 423 OFFCURVE",
"604 423 CURVE",
"512 414 LINE",
"403 396 LINE",
"413 338 LINE",
"452 349 OFFCURVE",
"484 353 OFFCURVE",
"512 353 CURVE SMOOTH",
"636 353 OFFCURVE",
"661 258 OFFCURVE",
"661 206 CURVE SMOOTH",
"661 149 OFFCURVE",
"617 70 OFFCURVE",
"479 70 CURVE SMOOTH",
"424 70 LINE"
);
},
{
closed = 1;
nodes = (
"374 630 LINE",
"480 630 LINE",
"557 630 OFFCURVE",
"607 586 OFFCURVE",
"607 527 CURVE",
"906 527 LINE",
"906 647 OFFCURVE",
"728 700 OFFCURVE",
"599 700 CURVE",
"374 700 LINE"
);
},
{
closed = 1;
nodes = (
"649 378 LINE",
"823 382 OFFCURVE",
"906 424 OFFCURVE",
"906 527 CURVE",
"607 527 LINE",
"607 475 OFFCURVE",
"589 429 OFFCURVE",
"512 414 CURVE"
);
}
);
width = 1000;
}
);
rightMetricsKey = O;
unicode = 0042;
},
{
glyphname = C;
lastChange = "2018-05-25 19:10:20 +0000";
layers = (
{
layerId = "3D764B9D-F2BF-4097-BA7B-376B3300FA34";
paths = (
{
closed = 1;
nodes = (
"853 236 LINE",
"907 216 LINE",
"774 104 OFFCURVE",
"670 84 OFFCURVE",
"595 79 CURVE SMOOTH",
"437 70 OFFCURVE",
"346 190 OFFCURVE",
"346 370 CURVE SMOOTH",
"346 508 OFFCURVE",
"386 641 OFFCURVE",
"505 641 CURVE SMOOTH",
"616 641 OFFCURVE",
"653 555 OFFCURVE",
"658 418 CURVE",
"924 418 LINE",
"901 581 OFFCURVE",
"741 710 OFFCURVE",
"498 710 CURVE SMOOTH",
"198 710 OFFCURVE",
"20 576 OFFCURVE",
"20 350 CURVE SMOOTH",
"20 124 OFFCURVE",
"198 -10 OFFCURVE",
"498 -10 CURVE SMOOTH",
"680 -10 OFFCURVE",
"838 65 OFFCURVE",
"939 171 CURVE",
"945 125 LINE"
);
},
{
closed = 1;
nodes = (
"866 488 LINE",
"866 418 LINE",
"954 418 LINE",
"954 488 LINE"
);
}
);
width = 974;
},
{
associatedMasterId = "3D764B9D-F2BF-4097-BA7B-376B3300FA34";
layerId = "BE81273C-6016-4DC7-A370-411F00BA9402";
name = "May 21 18, 15:08";
paths = (
{
closed = 1;
nodes = (
"853 236 LINE",
"907 216 LINE",
"774 104 OFFCURVE",
"670 84 OFFCURVE",
"595 79 CURVE SMOOTH",
"437 70 OFFCURVE",
"346 190 OFFCURVE",
"346 370 CURVE SMOOTH",
"346 508 OFFCURVE",
"386 641 OFFCURVE",
"505 641 CURVE SMOOTH",
"616 641 OFFCURVE",
"653 555 OFFCURVE",
"658 418 CURVE",
"934 418 LINE",
"901 581 OFFCURVE",
"741 710 OFFCURVE",
"498 710 CURVE SMOOTH",
"221 710 OFFCURVE",
"20 542 OFFCURVE",
"20 350 CURVE SMOOTH",
"20 156 OFFCURVE",
"227 -10 OFFCURVE",
"498 -10 CURVE SMOOTH",
"680 -10 OFFCURVE",
"838 65 OFFCURVE",
"939 171 CURVE",
"945 125 LINE"
);
},
{
closed = 1;
nodes = (
"866 488 LINE",
"866 418 LINE",
"944 418 LINE",
"944 488 LINE"
);
}
);
width = 964;
},
{
associatedMasterId = "3D764B9D-F2BF-4097-BA7B-376B3300FA34";
layerId = "0D8B445F-D750-47EC-BB2C-D145E773CBE5";
name = "May 25 18, 21:08";
paths = (
{
closed = 1;
nodes = (
"853 236 LINE",
"907 216 LINE",
"774 104 OFFCURVE",
"670 84 OFFCURVE",
"595 79 CURVE SMOOTH",
"437 70 OFFCURVE",
"346 190 OFFCURVE",
"346 370 CURVE SMOOTH",
"346 508 OFFCURVE",
"386 641 OFFCURVE",
"505 641 CURVE SMOOTH",
"646 641 OFFCURVE",
"683 557 OFFCURVE",
"688 450 CURVE",
"914 450 LINE",
"891 583 OFFCURVE",
"771 710 OFFCURVE",
"498 710 CURVE SMOOTH",
"198 710 OFFCURVE",
"20 576 OFFCURVE",
"20 350 CURVE SMOOTH",
"20 124 OFFCURVE",
"198 -10 OFFCURVE",
"498 -10 CURVE SMOOTH",
"680 -10 OFFCURVE",
"838 65 OFFCURVE",
"939 171 CURVE",
"945 125 LINE"
);
},
{
closed = 1;
nodes = (
"826 700 LINE",
"826 450 LINE",
"914 450 LINE",
"914 700 LINE"
);
}
);
width = 974;
}
);
leftMetricsKey = O;
rightMetricsKey = O;
unicode = 0043;
},
{
glyphname = D;
lastChange = "2018-05-21 13:48:30 +0000";
layers = (
{
components = (
{
name = I;
}
);
layerId = "3D764B9D-F2BF-4097-BA7B-376B3300FA34";
paths = (
{
closed = 1;
nodes = (
"504 70 LINE",
"504 0 LINE",
"808 0 OFFCURVE",
"988 138 OFFCURVE",
"988 355 CURVE SMOOTH",
"988 585 OFFCURVE",
"796 700 OFFCURVE",
"510 700 CURVE",
"504 700 LINE",
"500 630 LINE",
"591 630 OFFCURVE",
"672 525 OFFCURVE",
"672 317 CURVE SMOOTH",
"672 106 OFFCURVE",
"584 70 OFFCURVE",
"514 70 CURVE"
);
}
);
width = 1008;
}
);
rightMetricsKey = O;
unicode = 0044;
},
{
glyphname = E;
lastChange = "2018-05-21 19:08:01 +0000";
layers = (
{
layerId = "3D764B9D-F2BF-4097-BA7B-376B3300FA34";
paths = (
{
closed = 1;
nodes = (
"52 70 LINE",
"52 0 LINE",
"864 0 LINE",
"864 70 LINE"
);
},
{
closed = 1;
nodes = (
"791 280 LINE",
"561 0 LINE",
"864 0 LINE",
"864 280 LINE"
);
},
{
closed = 1;
nodes = (
"50 630 LINE",
"845 630 LINE",
"845 700 LINE",
"50 700 LINE"
);
},
{
closed = 1;
nodes = (
"781 453 LINE",
"845 453 LINE",
"845 700 LINE",
"562 700 LINE"
);
},
{
closed = 1;
nodes = (
"282 352 LINE",
"614 352 LINE",
"614 422 LINE",
"282 422 LINE"
);
},
{
closed = 1;
nodes = (
"130 0 LINE",
"415 0 LINE",
"415 700 LINE",
"130 700 LINE"
);
},
{
closed = 1;
nodes = (
"522 352 LINE",
"571 226 LINE",
"630 226 LINE",
"630 527 LINE",
"564 527 LINE",
"522 422 LINE"
);
}
);
width = 914;
}
);
unicode = 0045;
},
{
glyphname = F;
lastChange = "2018-05-21 19:07:05 +0000";
layers = (
{
layerId = "3D764B9D-F2BF-4097-BA7B-376B3300FA34";
paths = (
{
closed = 1;
nodes = (
"50 70 LINE",
"50 0 LINE",
"555 0 LINE",
"555 70 LINE"
);
},
{
closed = 1;
nodes = (
"50 630 LINE",
"845 630 LINE",
"845 700 LINE",
"50 700 LINE"
);
},
{
closed = 1;
nodes = (
"781 433 LINE",
"845 433 LINE",
"845 700 LINE",
"562 700 LINE"
);
},
{
closed = 1;
nodes = (
"269 312 LINE",
"601 312 LINE",
"601 382 LINE",
"269 382 LINE"
);
},
{
closed = 1;
nodes = (
"130 0 LINE",
"415 0 LINE",
"415 700 LINE",
"130 700 LINE"
);
},
{
closed = 1;
nodes = (
"526 312 LINE",
"575 196 LINE",
"634 196 LINE",
"634 497 LINE",
"568 497 LINE",
"526 382 LINE"
);
}
);
width = 870;
}
);
leftMetricsKey = I;
rightMetricsKey = i;
unicode = 0046;
},
{
glyphname = G;
lastChange = "2018-05-21 16:48:36 +0000";
layers = (
{
components = (
{
name = C;
}
);
layerId = "3D764B9D-F2BF-4097-BA7B-376B3300FA34";
paths = (
{
closed = 1;
nodes = (
"672 86 LINE",
"782 87 LINE",
"811 0 LINE",
"926 0 LINE",
"926 328 LINE",
"672 328 LINE"
);
},
{
closed = 1;
nodes = (
"537 258 LINE",
"672 258 LINE",
"672 328 LINE",
"537 328 LINE"
);
}
);
width = 999;
}
);
unicode = 0047;
},
{
glyphname = H;
lastChange = "2018-05-21 13:30:00 +0000";
layers = (
{
layerId = "3D764B9D-F2BF-4097-BA7B-376B3300FA34";
paths = (
{
closed = 1;
nodes = (
"50 70 LINE",
"50 0 LINE",
"495 0 LINE",
"495 70 LINE"
);
},
{
closed = 1;
nodes = (
"50 630 LINE",
"495 630 LINE",
"495 700 LINE",
"50 700 LINE"
);
},
{
closed = 1;
nodes = (
"282 342 LINE",
"764 342 LINE",
"764 412 LINE",
"282 412 LINE"
);
},
{
closed = 1;
nodes = (
"130 0 LINE",
"415 0 LINE",
"415 700 LINE",
"130 700 LINE"
);
},
{
closed = 1;
nodes = (
"614 70 LINE",
"614 0 LINE",
"1059 0 LINE",
"1059 70 LINE"
);
},
{
closed = 1;
nodes = (
"614 630 LINE",
"1059 630 LINE",
"1059 700 LINE",
"614 700 LINE"
);
},
{
closed = 1;
nodes = (
"694 0 LINE",
"979 0 LINE",
"979 700 LINE",
"694 700 LINE"
);
}
);
width = 1109;
}
);
unicode = 0048;
},
{
glyphname = I;
lastChange = "2018-05-21 13:47:34 +0000";
layers = (
{
layerId = "3D764B9D-F2BF-4097-BA7B-376B3300FA34";
paths = (
{
closed = 1;
nodes = (
"50 70 LINE",
"50 0 LINE",
"504 0 LINE",
"504 70 LINE"
);
},
{
closed = 1;
nodes = (
"129 0 LINE",
"424 0 LINE",
"424 700 LINE",
"129 700 LINE"
);
},
{
closed = 1;
nodes = (
"50 700 LINE",
"50 630 LINE",
"504 630 LINE",
"504 700 LINE"
);
}
);
width = 554;
}
);
unicode = 0049;
},
{
glyphname = J;
lastChange = "2018-05-27 11:29:07 +0000";
layers = (
{
layerId = "3D764B9D-F2BF-4097-BA7B-376B3300FA34";
paths = (
{
closed = 1;
nodes = (
"528 700 LINE",
"63 700 LINE",
"63 630 LINE",
"528 630 LINE"
);
},
{
closed = 1;
nodes = (
"448 700 LINE",
"163 700 LINE",
"163 41 LINE SMOOTH",
"163 -71 OFFCURVE",
"135 -108 OFFCURVE",
"50 -119 CURVE",
"62 -166 LINE",
"328 -156 OFFCURVE",
"448 -81 OFFCURVE",
"448 122 CURVE SMOOTH"
);
}
);
width = 578;
}
);
leftMetricsKey = I;
rightMetricsKey = I;
unicode = 004A;
},
{
glyphname = K;
lastChange = "2018-05-29 08:35:29 +0000";
layers = (
{
components = (
{
name = I;
}
);
layerId = "3D764B9D-F2BF-4097-BA7B-376B3300FA34";
paths = (
{
closed = 1;
nodes = (
"952 0 LINE",
"1087 0 LINE",
"1087 70 LINE",
"952 70 LINE"
);
},
{
closed = 1;
nodes = (
"492 429 LINE",
"720 0 LINE",
"982 0 LINE",
"1010 46 LINE",
"726 539 LINE"
);
},
{
closed = 1;
nodes = (
"296 272 LINE",
"1083 670 LINE",
"1022 585 LINE",
"1022 745 LINE",
"1083 700 LINE",
"670 700 LINE",
"747 589 LINE",
"268 342 LINE"
);
},
{
closed = 1;
nodes = (
"860 630 LINE",
"860 700 LINE",
"641 700 LINE",
"641 630 LINE"
);
}
);
width = 1127;
},
{
associatedMasterId = "3D764B9D-F2BF-4097-BA7B-376B3300FA34";
components = (
{
name = I;
}
);
layerId = "DEEC1DC0-9E2D-4E56-9E57-AAB1323F5CC4";
name = "May 29 18, 10:33";
paths = (
{
closed = 1;
nodes = (
"952 0 LINE",
"1087 0 LINE",
"1087 70 LINE",
"952 70 LINE"
);
},
{
closed = 1;
nodes = (
"492 429 LINE",
"720 0 LINE",
"982 0 LINE",
"1010 46 LINE",
"726 539 LINE"
);
},
{
closed = 1;
nodes = (
"632 630 LINE",
"953 630 LINE",
"1070 669 LINE",
"1059 700 LINE",
"632 700 LINE"
);
},
{
closed = 1;
nodes = (
"268 261 LINE",
"1070 669 LINE",
"954 694 LINE",
"240 325 LINE"
);
},
{
closed = 1;
nodes = (
"752 586 LINE",
"876 625 LINE",
"713 641 LINE"
);
}
);
visible = 1;
width = 1127;
}
);
unicode = 004B;
},
{
glyphname = L;
lastChange = "2018-05-21 13:18:58 +0000";
layers = (
{
layerId = "3D764B9D-F2BF-4097-BA7B-376B3300FA34";
paths = (
{
closed = 1;
nodes = (
"52 70 LINE",
"52 0 LINE",
"804 0 LINE",
"804 70 LINE"
);
},
{
closed = 1;
nodes = (
"731 310 LINE",
"561 0 LINE",
"804 0 LINE",
"804 310 LINE"
);
},
{
closed = 1;
nodes = (
"50 630 LINE",
"495 630 LINE",
"495 700 LINE",
"50 700 LINE"
);
},
{
closed = 1;
nodes = (
"130 0 LINE",
"415 0 LINE",
"415 700 LINE",
"130 700 LINE"
);
}
);
width = 854;
}
);
unicode = 004C;
},
{
glyphname = M;
lastChange = "2018-05-29 08:30:42 +0000";
layers = (
{
associatedMasterId = "3D764B9D-F2BF-4097-BA7B-376B3300FA34";
layerId = "17C81D25-DB15-4BCF-AC72-8E5EC74E120D";
name = "May 21 18, 19:08";
paths = (
{
closed = 1;
nodes = (
"433 0 LINE",
"506 0 LINE",
"610 208 LINE",
"393 700 LINE",
"147 700 LINE",
"135 681 LINE"
);
},
{
closed = 1;
nodes = (
"785 700 LINE",
"722 700 LINE",
"476 46 LINE",
"506 0 LINE",
"549 0 LINE",
"797 681 LINE"
);
},
{
closed = 1;
nodes = (
"110 0 LINE",
"185 0 LINE",
"205 700 LINE",
"130 700 LINE"
);
},
{
closed = 1;
nodes = (
"185 0 LINE",
"265 0 LINE",
"265 70 LINE",
"187 70 LINE"
);
},
{
closed = 1;
nodes = (
"30 0 LINE",
"110 0 LINE",
"112 70 LINE",
"30 70 LINE"
);
},
{
closed = 1;
nodes = (
"50 630 LINE",
"130 630 LINE",
"130 700 LINE",
"50 700 LINE"
);
},
{
closed = 1;
nodes = (
"731 700 LINE",
"761 0 LINE",
"936 0 LINE",
"906 700 LINE"
);
},
{
closed = 1;
nodes = (
"681 70 LINE",
"681 0 LINE",
"761 0 LINE",
"758 70 LINE"
);
},
{
closed = 1;
nodes = (
"933 70 LINE",
"936 0 LINE",
"1016 0 LINE",
"1016 70 LINE"
);
},
{
closed = 1;
nodes = (
"906 700 LINE",
"906 630 LINE",
"986 630 LINE",
"986 700 LINE"
);
}
);
width = 1056;
},
{
layerId = "3D764B9D-F2BF-4097-BA7B-376B3300FA34";
paths = (
{
closed = 1;
nodes = (
"433 0 LINE",
"506 0 LINE",
"610 208 LINE",
"393 700 LINE",
"127 700 LINE",
"115 681 LINE"
);
},
{
closed = 1;
nodes = (
"805 700 LINE",
"742 700 LINE",
"476 46 LINE",
"506 0 LINE",
"549 0 LINE",
"817 681 LINE"
);
},
{
closed = 1;
nodes = (
"100 0 LINE",
"175 0 LINE",
"175 700 LINE",
"100 700 LINE"
);
},
{
closed = 1;
nodes = (
"175 0 LINE",
"255 0 LINE",
"255 70 LINE",
"175 70 LINE"
);
},
{
closed = 1;
nodes = (
"20 0 LINE",
"100 0 LINE",
"100 70 LINE",
"20 70 LINE"
);
},
{
closed = 1;
nodes = (
"20 630 LINE",
"100 630 LINE",
"100 700 LINE",
"20 700 LINE"
);
},
{
closed = 1;
nodes = (
"781 700 LINE",
"781 0 LINE",
"956 0 LINE",
"956 700 LINE"
);
},
{
closed = 1;
nodes = (
"701 70 LINE",
"701 0 LINE",
"781 0 LINE",
"781 70 LINE"
);
},
{
closed = 1;
nodes = (
"956 70 LINE",
"956 0 LINE",
"1036 0 LINE",
"1036 70 LINE"
);
},
{
closed = 1;
nodes = (
"956 700 LINE",
"956 630 LINE",
"1036 630 LINE",
"1036 700 LINE"
);
}
);
width = 1056;
},
{
associatedMasterId = "3D764B9D-F2BF-4097-BA7B-376B3300FA34";
layerId = "DEFC9E22-70C3-4773-AF3B-366BB6E4FFEC";
name = "May 29 18, 10:30";
paths = (
{
closed = 1;
nodes = (
"433 0 LINE",
"506 0 LINE",
"610 208 LINE",
"393 700 LINE",
"147 700 LINE",
"135 681 LINE"
);
},
{
closed = 1;
nodes = (
"785 700 LINE",
"722 700 LINE",
"476 46 LINE",
"506 0 LINE",
"549 0 LINE",
"797 681 LINE"
);
},
{
closed = 1;
nodes = (
"130 0 LINE",
"205 0 LINE",
"205 700 LINE",
"130 700 LINE"
);
},
{
closed = 1;
nodes = (
"205 0 LINE",
"285 0 LINE",
"285 70 LINE",
"205 70 LINE"
);
},
{
closed = 1;
nodes = (
"50 0 LINE",
"130 0 LINE",
"130 70 LINE",
"50 70 LINE"
);
},
{
closed = 1;
nodes = (
"50 630 LINE",
"130 630 LINE",
"130 700 LINE",
"50 700 LINE"
);
},
{
closed = 1;
nodes = (
"751 700 LINE",
"751 0 LINE",
"926 0 LINE",
"926 700 LINE"
);
},
{
closed = 1;
nodes = (
"671 70 LINE",
"671 0 LINE",
"751 0 LINE",
"751 70 LINE"
);
},
{
closed = 1;
nodes = (
"926 70 LINE",
"926 0 LINE",
"1006 0 LINE",
"1006 70 LINE"
);
},
{
closed = 1;
nodes = (
"926 700 LINE",
"926 630 LINE",
"1006 630 LINE",
"1006 700 LINE"
);
}
);
width = 1056;
}
);
leftMetricsKey = I;
rightMetricsKey = I;
unicode = 004D;
},
{
glyphname = N;
lastChange = "2018-05-29 08:41:01 +0000";
layers = (
{
layerId = "3D764B9D-F2BF-4097-BA7B-376B3300FA34";
paths = (
{
closed = 1;
nodes = (
"130 0 LINE",
"205 0 LINE",
"205 700 LINE",
"130 700 LINE"
);
},
{
closed = 1;
nodes = (
"764 0 LINE",
"839 0 LINE",
"839 700 LINE",
"764 700 LINE"
);
},
{
closed = 1;
nodes = (
"632 0 LINE",
"778 0 LINE",
"778 275 LINE",
"428 700 LINE",
"205 700 LINE",
"50 700 LINE"
);
},
{
closed = 1;
nodes = (
"205 0 LINE",
"285 0 LINE",
"285 70 LINE",
"205 70 LINE"
);
},
{
closed = 1;
nodes = (
"50 0 LINE",
"130 0 LINE",
"130 70 LINE",
"50 70 LINE"
);
},
{
closed = 1;
nodes = (
"684 630 LINE",
"764 630 LINE",
"764 700 LINE",
"684 700 LINE"
);
},
{
closed = 1;
nodes = (
"839 630 LINE",
"919 630 LINE",
"919 700 LINE",
"839 700 LINE"
);
},
{
closed = 1;
nodes = (
"50 630 LINE",
"130 630 LINE",
"130 700 LINE",
"50 700 LINE"
);
}
);
width = 944;
},
{
associatedMasterId = "3D764B9D-F2BF-4097-BA7B-376B3300FA34";
layerId = "046127FD-A147-4647-83FE-50D385001021";
name = "May 29 18, 10:37";
paths = (
{
closed = 1;
nodes = (
"130 0 LINE",
"205 0 LINE",
"205 700 LINE",
"130 700 LINE"
);
},
{
closed = 1;
nodes = (
"734 0 LINE",
"809 0 LINE",
"809 700 LINE",
"734 700 LINE"
);
},
{
closed = 1;
nodes = (
"612 0 LINE",
"748 0 LINE",
"748 275 LINE",
"418 700 LINE",
"205 700 LINE",
"50 700 LINE"
);
},
{
closed = 1;
nodes = (
"205 0 LINE",
"285 0 LINE",
"285 70 LINE",
"205 70 LINE"
);
},
{
closed = 1;
nodes = (
"50 0 LINE",
"130 0 LINE",
"130 70 LINE",
"50 70 LINE"
);
},
{
closed = 1;
nodes = (
"654 630 LINE",
"734 630 LINE",
"734 700 LINE",
"654 700 LINE"
);
},
{
closed = 1;
nodes = (
"809 630 LINE",
"889 630 LINE",
"889 700 LINE",
"809 700 LINE"
);
},
{
closed = 1;
nodes = (
"50 630 LINE",
"130 630 LINE",
"130 700 LINE",
"50 700 LINE"
);
}
);
width = 914;
}
);
leftMetricsKey = I;
rightMetricsKey = "=I/2";
unicode = 004E;
},
{
glyphname = O;
lastChange = "2018-05-21 13:43:04 +0000";
layers = (
{
layerId = "3D764B9D-F2BF-4097-BA7B-376B3300FA34";
paths = (
{
closed = 1;
nodes = (
"20 105 OFFCURVE",
"211 -10 OFFCURVE",
"497 -10 CURVE SMOOTH",
"801 -10 OFFCURVE",
"981 138 OFFCURVE",
"981 355 CURVE SMOOTH",
"981 595 OFFCURVE",
"790 710 OFFCURVE",
"504 710 CURVE SMOOTH",
"200 710 OFFCURVE",
"20 562 OFFCURVE",
"20 338 CURVE SMOOTH"
);
},
{
closed = 1;
nodes = (
"336 593 OFFCURVE",
"424 643 OFFCURVE",
"493 643 CURVE SMOOTH",
"584 643 OFFCURVE",
"665 535 OFFCURVE",
"665 317 CURVE SMOOTH",
"665 106 OFFCURVE",
"577 57 OFFCURVE",
"508 57 CURVE SMOOTH",
"414 57 OFFCURVE",
"336 165 OFFCURVE",
"336 377 CURVE SMOOTH"
);
}
);
width = 1001;
}
);
unicode = 004F;
},
{
glyphname = P;
lastChange = "2018-05-21 13:05:03 +0000";
layers = (
{
components = (
{
name = I;
}
);
layerId = "3D764B9D-F2BF-4097-BA7B-376B3300FA34";
paths = (
{
closed = 1;
nodes = (
"479 630 LINE SMOOTH",
"617 630 OFFCURVE",
"661 531 OFFCURVE",
"661 454 CURVE SMOOTH",
"661 362 OFFCURVE",
"636 267 OFFCURVE",
"512 267 CURVE SMOOTH",
"484 267 OFFCURVE",
"452 271 OFFCURVE",
"413 282 CURVE",
"403 224 LINE",
"475 206 OFFCURVE",
"543 197 OFFCURVE",
"604 197 CURVE SMOOTH",
"835 197 OFFCURVE",
"980 316 OFFCURVE",
"980 454 CURVE SMOOTH",
"980 616 OFFCURVE",
"802 700 OFFCURVE",
"649 700 CURVE SMOOTH",
"424 700 LINE",
"424 630 LINE"
);
}
);
width = 980;
}
);
leftMetricsKey = I;
unicode = 0050;
},
{
glyphname = R;
lastChange = "2018-05-21 13:06:23 +0000";
layers = (
{
components = (
{
name = I;
}
);
layerId = "3D764B9D-F2BF-4097-BA7B-376B3300FA34";
paths = (
{
closed = 1;
nodes = (
"424 630 LINE",
"510 630 LINE",
"587 630 OFFCURVE",
"637 566 OFFCURVE",
"637 497 CURVE",
"956 497 LINE",
"956 627 OFFCURVE",
"778 700 OFFCURVE",
"649 700 CURVE",
"424 700 LINE"
);
},
{
closed = 1;
nodes = (
"621 70 LINE",
"621 0 LINE",
"967 0 LINE",
"967 70 LINE"
);
},
{
closed = 1;
nodes = (
"637 400 OFFCURVE",
"557 354 OFFCURVE",
"483 354 CURVE",
"393 354 LINE",
"393 284 LINE",
"570 284 LINE",
"801 284 OFFCURVE",
"956 342 OFFCURVE",
"956 497 CURVE",
"637 497 LINE"
);
},
{
closed = 1;
nodes = (
"487 321 LINE",
"621 0 LINE",
"941 0 LINE",
"832 248 LINE SMOOTH",
"811 296 OFFCURVE",
"765 321 OFFCURVE",
"715 321 CURVE"
);
}
);
width = 967;
}
);
leftMetricsKey = I;
unicode = 0052;
},
{
glyphname = T;
lastChange = "2018-05-21 16:44:32 +0000";
layers = (
{
layerId = "3D764B9D-F2BF-4097-BA7B-376B3300FA34";
paths = (
{
closed = 1;
nodes = (
"170 70 LINE",
"170 0 LINE",
"675 0 LINE",
"675 70 LINE"
);
},
{
closed = 1;
nodes = (
"0 630 LINE",
"845 630 LINE",
"845 700 LINE",
"0 700 LINE"
);
},
{
closed = 1;
nodes = (
"770 413 LINE",
"845 413 LINE",
"845 700 LINE",
"648 700 LINE"
);
},
{
closed = 1;
nodes = (
"280 0 LINE",
"565 0 LINE",
"565 700 LINE",
"280 700 LINE"
);
},
{
closed = 1;
nodes = (
"0 700 LINE",
"0 413 LINE",
"75 413 LINE",
"196 700 LINE"
);
}
);
width = 845;
}
);
unicode = 0054;
},
{
glyphname = U;
lastChange = "2018-05-27 20:47:05 +0000";
layers = (
{
layerId = "3D764B9D-F2BF-4097-BA7B-376B3300FA34";
paths = (
{
closed = 1;
nodes = (
"515 630 LINE",
"515 700 LINE",
"50 700 LINE",
"50 630 LINE"
);
},
{
closed = 1;
nodes = (
"130 75 OFFCURVE",
"264 -10 OFFCURVE",
"506 -10 CURVE SMOOTH",
"749 -10 OFFCURVE",
"809 75 OFFCURVE",
"809 278 CURVE SMOOTH",
"809 700 LINE",
"734 700 LINE",
"734 228 LINE SMOOTH",
"734 122 OFFCURVE",
"691 57 OFFCURVE",
"577 57 CURVE SMOOTH",
"463 57 OFFCURVE",
"415 122 OFFCURVE",
"415 228 CURVE SMOOTH",
"415 700 LINE",
"130 700 LINE",
"130 278 LINE SMOOTH"
);
},
{
closed = 1;
nodes = (
"909 630 LINE",
"909 700 LINE",
"634 700 LINE",
"634 630 LINE"
);
}
);
width = 959;
},
{
associatedMasterId = "3D764B9D-F2BF-4097-BA7B-376B3300FA34";
layerId = "DEA78B2B-683F-4A96-85CA-349CAD715EEA";
name = "May 21 18, 15:57";
paths = (
{
closed = 1;
nodes = (
"634 217 LINE",
"634 66 OFFCURVE",
"566 57 OFFCURVE",
"510 57 CURVE SMOOTH",
"443 57 OFFCURVE",
"385 125 OFFCURVE",
"385 277 CURVE",
"100 318 LINE",
"100 85 OFFCURVE",
"250 -10 OFFCURVE",
"506 -10 CURVE SMOOTH",
"780 -10 OFFCURVE",
"919 118 OFFCURVE",
"919 335 CURVE"
);
},
{
closed = 1;
nodes = (
"20 630 LINE",
"465 630 LINE",
"465 700 LINE",
"20 700 LINE"
);
},
{
closed = 1;
nodes = (
"100 318 LINE",
"385 277 LINE",
"385 700 LINE",
"100 700 LINE"
);
},
{
closed = 1;
nodes = (
"554 630 LINE",
"999 630 LINE",
"999 700 LINE",
"554 700 LINE"
);
},
{
closed = 1;
nodes = (
"634 217 LINE",
"919 335 LINE",
"919 700 LINE",
"634 700 LINE"
);
}
);
visible = 1;
width = 1115;
},
{
associatedMasterId = "3D764B9D-F2BF-4097-BA7B-376B3300FA34";
layerId = "F891E152-B880-410C-8DA2-9C064F10712C";
name = "May 27 18, 13:20";
paths = (
{
closed = 1;
nodes = (
"495 630 LINE",
"495 700 LINE",
"50 700 LINE",
"50 630 LINE"
);
},
{
closed = 1;
nodes = (
"130 105 OFFCURVE",
"250 -10 OFFCURVE",
"536 -10 CURVE SMOOTH",
"840 -10 OFFCURVE",
"949 138 OFFCURVE",
"949 295 CURVE SMOOTH",
"949 700 LINE",
"664 700 LINE",
"664 187 LINE SMOOTH",
"664 96 OFFCURVE",
"616 57 OFFCURVE",
"547 57 CURVE SMOOTH",
"453 57 OFFCURVE",
"415 135 OFFCURVE",
"415 247 CURVE SMOOTH",
"415 700 LINE",
"130 700 LINE",
"130 278 LINE SMOOTH"
);
},
{
closed = 1;
nodes = (
"1029 630 LINE",
"1029 700 LINE",
"584 700 LINE",
"584 630 LINE"
);
}
);
width = 1079;
}
);
leftMetricsKey = I;
rightMetricsKey = I;
unicode = 0055;
},
{
glyphname = V;
lastChange = "2018-05-21 14:03:02 +0000";
layers = (
{
layerId = "3D764B9D-F2BF-4097-BA7B-376B3300FA34";
paths = (
{
closed = 1;
nodes = (
"383 0 LINE",
"639 0 LINE",
"629 106 LINE",
"403 700 LINE",
"246 700 LINE",
"127 700 LINE",
"115 681 LINE"
);
},
{
closed = 1;
nodes = (
"885 700 LINE",
"822 700 LINE",
"566 46 LINE",
"596 0 LINE",
"639 0 LINE",
"897 681 LINE"
);
},
{
closed = 1;
nodes = (
"50 701 LINE",
"50 631 LINE",
"528 631 LINE",
"528 701 LINE"
);
},
{
closed = 1;
nodes = (
"696 701 LINE",
"696 631 LINE",
"966 631 LINE",
"966 701 LINE"
);
}
);
width = 1016;
}
);
unicode = 0056;
},
{
glyphname = W;
lastChange = "2018-05-21 15:34:46 +0000";
layers = (
{
associatedMasterId = "3D764B9D-F2BF-4097-BA7B-376B3300FA34";
layerId = "2DA98F21-60CF-4FFC-AC98-D418AAC71690";
name = "May 21 18, 17:17";
paths = (
{
closed = 1;
nodes = (
"383 0 LINE",
"639 0 LINE",
"629 106 LINE",
"403 700 LINE",
"246 700 LINE",
"127 700 LINE",
"115 681 LINE"
);
},
{
closed = 1;
nodes = (
"885 700 LINE",
"822 700 LINE",
"566 46 LINE",
"596 0 LINE",
"639 0 LINE",
"897 681 LINE"
);
},
{
closed = 1;
nodes = (
"50 701 LINE",
"50 631 LINE",
"490 631 LINE",
"490 701 LINE"
);
},
{
closed = 1;
nodes = (
"560 701 LINE",
"560 631 LINE",
"986 631 LINE",
"986 701 LINE"
);
},
{
closed = 1;
nodes = (
"1053 175 LINE",
"853 700 LINE",
"736 700 LINE",
"617 700 LINE",
"605 681 LINE",
"873 0 LINE",
"987 0 LINE"
);
},
{
closed = 1;
nodes = (
"1233 700 LINE",
"1170 700 LINE",
"914 46 LINE",
"914 0 LINE",
"987 0 LINE",
"1245 681 LINE"
);
},
{
closed = 1;
nodes = (
"1056 701 LINE",
"1056 631 LINE",
"1316 631 LINE",
"1316 701 LINE"
);
}
);
width = 1366;
},
{
associatedMasterId = "3D764B9D-F2BF-4097-BA7B-376B3300FA34";
layerId = "5973C16F-F71E-4689-A2E5-ED78BE5A6108";
name = "May 21 18, 17:18";
paths = (
{
closed = 1;
nodes = (
"880 700 LINE",
"817 700 LINE",
"591 46 LINE",
"621 0 LINE",
"664 0 LINE",
"892 681 LINE"
);
},
{
closed = 1;
nodes = (
"560 701 LINE",
"560 631 LINE",
"986 631 LINE",
"986 701 LINE"
);
},
{
closed = 1;
nodes = (
"1023 175 LINE",
"853 700 LINE",
"736 700 LINE",
"617 700 LINE",
"605 681 LINE",
"843 0 LINE",
"957 0 LINE"
);
}
);
width = 1366;
},
{
associatedMasterId = "3D764B9D-F2BF-4097-BA7B-376B3300FA34";
layerId = "FCE31225-33DE-4B6A-A8E9-CACC136B723A";
name = "May 21 18, 17:20";
paths = (
{
closed = 1;
nodes = (
"353 0 LINE",
"609 0 LINE",
"599 106 LINE",
"403 700 LINE",
"246 700 LINE",
"127 700 LINE",
"115 681 LINE"
);
},
{
closed = 1;
nodes = (
"50 701 LINE",
"50 631 LINE",
"490 631 LINE",
"490 701 LINE"
);
},
{
closed = 1;
nodes = (
"1233 700 LINE",
"1170 700 LINE",
"944 46 LINE",
"974 0 LINE",
"1017 0 LINE",
"1245 681 LINE"
);
},
{
closed = 1;
nodes = (
"1056 701 LINE",
"1056 631 LINE",
"1316 631 LINE",
"1316 701 LINE"
);
}
);
width = 1366;
},
{
associatedMasterId = "3D764B9D-F2BF-4097-BA7B-376B3300FA34";
layerId = "8B29BAFF-B95A-45B4-B136-EDAE1A422696";
name = "May 21 18, 17:27";
paths = (
{
closed = 1;
nodes = (
"383 0 LINE",
"639 0 LINE",
"629 106 LINE",
"403 700 LINE",
"246 700 LINE",
"127 700 LINE",
"115 681 LINE"
);
},
{
closed = 1;
nodes = (
"50 700 LINE",
"50 631 LINE",
"490 631 LINE",
"490 700 LINE"
);
},
{
closed = 1;
nodes = (
"1189 700 LINE",
"1126 700 LINE",
"870 46 LINE",
"900 0 LINE",
"943 0 LINE",
"1201 681 LINE"
);
},
{
closed = 1;
nodes = (
"1010 700 LINE",
"1010 631 LINE",
"1270 631 LINE",
"1270 700 LINE"
);
},
{
closed = 1;
nodes = (
"834 700 LINE",
"771 700 LINE",
"566 46 LINE",
"596 0 LINE",
"639 0 LINE",
"846 681 LINE"
);
},
{
closed = 1;
nodes = (
"554 700 LINE",
"554 631 LINE",
"940 631 LINE",
"940 700 LINE"
);
},
{
closed = 1;
nodes = (
"1008 175 LINE",
"837 700 LINE",
"720 700 LINE",
"601 700 LINE",
"589 681 LINE",
"828 0 LINE",
"942 0 LINE"
);
}
);
width = 1320;
},
{
associatedMasterId = "3D764B9D-F2BF-4097-BA7B-376B3300FA34";
layerId = "8AEC0D9A-AF44-4E60-A02D-6BC38713A1DE";
name = "May 21 18, 17:29";
paths = (
{
closed = 1;
nodes = (
"314 0 LINE",
"570 0 LINE",
"560 106 LINE",
"403 700 LINE",
"246 700 LINE",
"127 700 LINE",
"115 681 LINE"
);
},
{
closed = 1;
nodes = (
"50 700 LINE",
"50 631 LINE",
"470 631 LINE",
"470 700 LINE"
);
},
{
closed = 1;
nodes = (
"1194 700 LINE",
"1131 700 LINE",
"976 46 LINE",
"976 0 LINE",
"1049 0 LINE",
"1206 681 LINE"
);
},
{
closed = 1;
nodes = (
"967 700 LINE",
"967 631 LINE",
"1267 631 LINE",
"1267 700 LINE"
);
},
{
closed = 1;
nodes = (
"808 700 LINE",
"745 700 LINE",
"520 46 LINE",
"550 0 LINE",
"593 0 LINE",
"820 681 LINE"
);
},
{
closed = 1;
nodes = (
"528 700 LINE",
"528 631 LINE",
"914 631 LINE",
"914 700 LINE"
);
},
{
closed = 1;
nodes = (
"1043 64 LINE",
"811 700 LINE",
"694 700 LINE",
"575 700 LINE",
"563 681 LINE",
"822 0 LINE",
"1029 0 LINE"
);
}
);
width = 1247;
},
{
associatedMasterId = "3D764B9D-F2BF-4097-BA7B-376B3300FA34";
layerId = "FB33A92D-50FD-4FC0-93EF-35BE4675A7F7";
name = "May 21 18, 17:33";
paths = (
{
closed = 1;
nodes = (
"383 0 LINE",
"639 0 LINE",
"629 106 LINE",
"403 700 LINE",
"246 700 LINE",
"127 700 LINE",
"115 681 LINE"
);
},
{
closed = 1;
nodes = (
"885 700 LINE",
"822 700 LINE",
"566 46 LINE",
"596 0 LINE",
"639 0 LINE",
"897 681 LINE"
);
},
{
closed = 1;
nodes = (
"50 700 LINE",
"50 631 LINE",
"490 631 LINE",
"490 700 LINE"
);
},
{
closed = 1;
nodes = (
"560 700 LINE",
"560 631 LINE",
"1026 631 LINE",
"1026 700 LINE"
);
},
{
closed = 1;
nodes = (
"1093 175 LINE",
"893 700 LINE",
"736 700 LINE",
"617 700 LINE",
"605 681 LINE",
"873 0 LINE",
"1007 0 LINE"
);
},
{
closed = 1;
nodes = (
"1275 700 LINE",
"1212 700 LINE",
"956 46 LINE",
"986 0 LINE",
"1029 0 LINE",
"1287 681 LINE"
);
},
{
closed = 1;
nodes = (
"1096 700 LINE",
"1096 631 LINE",
"1356 631 LINE",
"1356 700 LINE"
);
}
);
width = 1406;
},
{
layerId = "3D764B9D-F2BF-4097-BA7B-376B3300FA34";
paths = (
{
closed = 1;
nodes = (
"334 0 LINE",
"590 0 LINE",
"580 106 LINE",
"403 700 LINE",
"246 700 LINE",
"127 700 LINE",
"115 681 LINE"
);
},
{
closed = 1;
nodes = (
"50 700 LINE",
"50 631 LINE",
"470 631 LINE",
"470 700 LINE"
);
},
{
closed = 1;
nodes = (
"1124 700 LINE",
"1061 700 LINE",
"886 46 LINE",
"916 0 LINE",
"959 0 LINE",
"1136 681 LINE"
);
},
{
closed = 1;
nodes = (
"967 700 LINE",
"967 631 LINE",
"1197 631 LINE",
"1197 700 LINE"
);
},
{
closed = 1;
nodes = (
"808 700 LINE",
"745 700 LINE",
"540 46 LINE",
"570 0 LINE",
"613 0 LINE",
"820 681 LINE"
);
},
{
closed = 1;
nodes = (
"528 700 LINE",
"528 631 LINE",
"914 631 LINE",
"914 700 LINE"
);
},
{
closed = 1;
nodes = (
"982 175 LINE",
"811 700 LINE",
"694 700 LINE",
"575 700 LINE",
"563 681 LINE",
"802 0 LINE",
"916 0 LINE"
);
}
);
width = 1247;
}
);
unicode = 0057;
},
{
glyphname = Z;
lastChange = "2018-05-21 13:09:23 +0000";
layers = (
{
layerId = "3D764B9D-F2BF-4097-BA7B-376B3300FA34";
paths = (
{
closed = 1;
nodes = (
"886 700 LINE",
"767 700 LINE",
"554 700 LINE",
"50 46 LINE",
"78 0 LINE",
"380 0 LINE",
"898 681 LINE"
);
},
{
closed = 1;
nodes = (
"174 70 LINE",
"174 0 LINE",
"906 0 LINE",
"906 70 LINE"
);
},
{
closed = 1;
nodes = (
"801 300 LINE",
"571 0 LINE",
"906 0 LINE",
"906 300 LINE"
);
},
{
closed = 1;
nodes = (
"97 700 LINE",
"97 630 LINE",
"812 630 LINE",
"812 700 LINE"
);
},
{
closed = 1;
nodes = (
"97 700 LINE",
"97 413 LINE",
"171 413 LINE",
"380 700 LINE"
);
}
);
width = 956;
}
);
leftMetricsKey = I;
rightMetricsKey = I;
unicode = 005A;
},
{
color = 9;
glyphname = a;
lastChange = "2018-05-29 09:26:33 +0000";
layers = (
{
associatedMasterId = "3D764B9D-F2BF-4097-BA7B-376B3300FA34";
layerId = "DC0BEB6E-5170-492F-80FB-7E99E345BA63";
name = "May 27 18, 13:32";
paths = (
{
closed = 1;
nodes = (
"20 34 OFFCURVE",
"106 -10 OFFCURVE",
"214 -10 CURVE SMOOTH",
"315 -10 OFFCURVE",
"436 28 OFFCURVE",
"522 88 CURVE",
"522 165 LINE",
"462 124 OFFCURVE",
"407 107 OFFCURVE",
"363 107 CURVE SMOOTH",
"305 107 OFFCURVE",
"268 137 OFFCURVE",
"268 194 CURVE SMOOTH",
"268 259 OFFCURVE",
"324 284 OFFCURVE",
"408 284 CURVE SMOOTH",
"472 284 LINE",
"472 341 LINE",
"383 341 LINE SMOOTH",
"215 341 OFFCURVE",
"20 309 OFFCURVE",
"20 154 CURVE SMOOTH"
);
},
{
closed = 1;
nodes = (
"267 414 OFFCURVE",
"307 428 OFFCURVE",
"365 428 CURVE SMOOTH",
"410 428 OFFCURVE",
"444 412 OFFCURVE",
"444 327 CURVE SMOOTH",
"444 0 LINE",
"692 0 LINE",
"692 334 LINE",
"692 481 OFFCURVE",
"612 531 OFFCURVE",
"457 531 CURVE SMOOTH",
"345 531 OFFCURVE",
"245 505 OFFCURVE",
"190 380 CURVE",
"212 353 LINE"
);
},
{
closed = 1;
nodes = (
"692 0 LINE",
"767 0 LINE",
"767 70 LINE",
"692 70 LINE"
);
},
{
closed = 1;
nodes = (
"212 353 LINE",
"240 520 LINE",
"171 532 LINE",
"143 365 LINE"
);
},
{
closed = 1;
nodes = (
"765 -3 LINE",
"765 73 LINE",
"695 73 LINE",
"695 -3 LINE"
);
}
);
width = 792;
},
{
associatedMasterId = "3D764B9D-F2BF-4097-BA7B-376B3300FA34";
layerId = "999344D9-2A71-4726-85D2-17D84B343B99";
name = "May 29 18, 11:26";
paths = (
{
closed = 1;
nodes = (
"20 34 OFFCURVE",
"106 -10 OFFCURVE",
"214 -10 CURVE SMOOTH",
"315 -10 OFFCURVE",
"436 28 OFFCURVE",
"522 88 CURVE",
"522 165 LINE",
"462 124 OFFCURVE",
"407 107 OFFCURVE",
"363 107 CURVE SMOOTH",
"305 107 OFFCURVE",
"268 137 OFFCURVE",
"268 194 CURVE SMOOTH",
"268 259 OFFCURVE",
"324 284 OFFCURVE",
"408 284 CURVE SMOOTH",
"472 284 LINE",
"472 341 LINE",
"383 341 LINE SMOOTH",
"215 341 OFFCURVE",
"20 309 OFFCURVE",
"20 154 CURVE SMOOTH"
);
},
{
closed = 1;
nodes = (
"129 391 LINE"
);
},
{
closed = 1;
nodes = (
"692 0 LINE",
"767 0 LINE",
"767 70 LINE",
"692 70 LINE"
);
},
{
closed = 1;
nodes = (
"159 353 LINE",
"129 410 LINE",
"129 520 LINE",
"59 520 LINE",
"59 353 LINE"
);
},
{
closed = 1;
nodes = (
"159 353 LINE",
"244 414 OFFCURVE",
"249 428 OFFCURVE",
"317 428 CURVE SMOOTH",
"410 428 OFFCURVE",
"444 412 OFFCURVE",
"444 327 CURVE SMOOTH",
"444 0 LINE",
"692 0 LINE",
"692 334 LINE",
"692 481 OFFCURVE",
"612 531 OFFCURVE",
"437 531 CURVE SMOOTH",
"325 531 OFFCURVE",
"230 511 OFFCURVE",
"129 410 CURVE",
"129 391 LINE"
);
}
);
width = 792;
},
{
layerId = "3D764B9D-F2BF-4097-BA7B-376B3300FA34";
paths = (
{
closed = 1;
nodes = (
"20 34 OFFCURVE",
"106 -10 OFFCURVE",
"214 -10 CURVE SMOOTH",
"315 -10 OFFCURVE",
"436 28 OFFCURVE",
"522 88 CURVE",
"522 165 LINE",
"462 124 OFFCURVE",
"407 107 OFFCURVE",
"363 107 CURVE SMOOTH",
"305 107 OFFCURVE",
"268 137 OFFCURVE",
"268 194 CURVE SMOOTH",
"268 259 OFFCURVE",
"324 284 OFFCURVE",
"408 284 CURVE SMOOTH",
"472 284 LINE",
"472 341 LINE",
"383 341 LINE SMOOTH",
"215 341 OFFCURVE",
"20 309 OFFCURVE",
"20 154 CURVE SMOOTH"
);
},
{
closed = 1;
nodes = (
"267 414 OFFCURVE",
"307 428 OFFCURVE",
"365 428 CURVE SMOOTH",
"410 428 OFFCURVE",
"444 412 OFFCURVE",
"444 327 CURVE SMOOTH",
"444 0 LINE",
"692 0 LINE",
"692 334 LINE",
"692 481 OFFCURVE",
"612 531 OFFCURVE",
"457 531 CURVE SMOOTH",
"345 531 OFFCURVE",
"245 505 OFFCURVE",
"190 380 CURVE",
"212 353 LINE"
);
},
{
closed = 1;
nodes = (
"692 0 LINE",
"767 0 LINE",
"767 70 LINE",
"692 70 LINE"
);
},
{
closed = 1;
nodes = (
"212 353 LINE",
"222 410 LINE",
"232 520 LINE",
"162 520 LINE",
"162 353 LINE"
);
}
);
width = 792;
}
);
leftMetricsKey = o;
rightMetricsKey = i;
unicode = 0061;
},
{
glyphname = c;
lastChange = "2018-05-29 09:31:16 +0000";
layers = (
{
anchors = (
{
name = bottom;
position = "{409, 0}";
},
{
name = top;
position = "{409, 520}";
}
);
components = (
{
name = _ce;
}
);
layerId = "3D764B9D-F2BF-4097-BA7B-376B3300FA34";
width = 818;
},
{
associatedMasterId = "3D764B9D-F2BF-4097-BA7B-376B3300FA34";
components = (
{
name = _ce;
transform = "{1, 0, 0, 1, 20, 0}";
}
);
layerId = "D30FCBCF-815D-471A-8E33-64F69E43E926";
name = "May 21 18, 18:13";
paths = (
{
closed = 1;
nodes = (
"539 304 LINE",
"789 337 LINE",
"777 411 LINE",
"539 375 LINE"
);
}
);
width = 818;
}
);
leftMetricsKey = o;
rightMetricsKey = i;
unicode = 0063;
},
{
glyphname = e;
lastChange = "2018-05-29 08:41:17 +0000";
layers = (
{
components = (
{
name = _ce;
}
);
layerId = "3D764B9D-F2BF-4097-BA7B-376B3300FA34";
paths = (
{
closed = 1;
nodes = (
"252 220 LINE",
"801 302 LINE",
"789 376 LINE",
"252 291 LINE"
);
}
);
width = 813;
},
{
associatedMasterId = "3D764B9D-F2BF-4097-BA7B-376B3300FA34";
components = (
{
name = _ce;
transform = "{1, 0, 0, 1, 20, 0}";
}
);
layerId = "606C38BF-0D79-4704-91CD-1815AB6D3FF6";
name = "May 21 18, 17:45";
paths = (
{
closed = 1;
nodes = (
"790 400 LINE",
"252 265 LINE",
"292 185 LINE",
"813 316 LINE"
);
},
{
closed = 1;
nodes = (
"253 238 LINE",
"789 319 LINE",
"777 393 LINE",
"253 309 LINE"
);
}
);
width = 849;
}
);
leftMetricsKey = o;
rightMetricsKey = o;
unicode = 0065;
},
{
glyphname = f;
lastChange = "2018-05-28 19:38:24 +0000";
layers = (
{
components = (
{
name = idotless;
}
);
layerId = "3D764B9D-F2BF-4097-BA7B-376B3300FA34";
paths = (
{
closed = 1;
nodes = (
"410 520 LINE",
"273 540 OFFCURVE",
"225 590 OFFCURVE",
"225 645 CURVE SMOOTH",
"225 694 OFFCURVE",
"263 729 OFFCURVE",
"315 729 CURVE SMOOTH",
"377 729 OFFCURVE",
"417 678 OFFCURVE",
"428 622 CURVE",
"515 671 LINE",
"515 745 OFFCURVE",
"381 794 OFFCURVE",
"288 794 CURVE SMOOTH",
"131 794 OFFCURVE",
"47 743 OFFCURVE",
"47 661 CURVE SMOOTH",
"47 608 OFFCURVE",
"84 542 OFFCURVE",
"192 520 CURVE"
);
},
{
closed = 1;
nodes = (
"355 450 LINE",
"562 450 LINE",
"562 520 LINE",
"355 520 LINE"
);
},
{
closed = 1;
nodes = (
"25 450 LINE",
"100 450 LINE",
"100 520 LINE",
"25 520 LINE"
);
},
{
closed = 1;
nodes = (
"25 0 LINE",
"100 0 LINE",
"100 70 LINE",
"25 70 LINE"
);
},
{
closed = 1;
nodes = (
"354 0 LINE",
"449 0 LINE",
"449 70 LINE",
"354 70 LINE"
);
},
{
closed = 1;
nodes = (
"428 622 LINE",
"562 622 LINE",
"562 692 LINE",
"428 692 LINE"
);
}
);
width = 593;
},
{
associatedMasterId = "3D764B9D-F2BF-4097-BA7B-376B3300FA34";
components = (
{
name = idotless;
}
);
layerId = "00E301E4-416C-4F8D-B9FD-125DF0A145BB";
name = "May 21 18, 17:55";
paths = (
{
closed = 1;
nodes = (
"356 468 LINE",
"495 481 LINE",
"495 524 LINE",
"350 523 LINE",
"364 517 LINE"
);
},
{
closed = 1;
nodes = (
"582 703 LINE",
"506 759 OFFCURVE",
"446 788 OFFCURVE",
"358 788 CURVE",
"232 788 OFFCURVE",
"100 729 OFFCURVE",
"100 593 CURVE",
"100 253 LINE",
"355 253 LINE",
"355 545 LINE",
"355 634 OFFCURVE",
"386 673 OFFCURVE",
"450 673 CURVE SMOOTH",
"490 673 OFFCURVE",
"536 660 OFFCURVE",
"582 633 CURVE"
);
}
);
width = 454;
},
{
associatedMasterId = "3D764B9D-F2BF-4097-BA7B-376B3300FA34";
layerId = "B2494AB7-4D65-40E6-BB63-226CFFF1AF66";
name = "May 21 18, 18:57";
paths = (
{
closed = 1;
nodes = (
"420 520 LINE",
"293 520 OFFCURVE",
"245 590 OFFCURVE",
"245 645 CURVE SMOOTH",
"245 694 OFFCURVE",
"283 729 OFFCURVE",
"335 729 CURVE SMOOTH",
"397 729 OFFCURVE",
"437 678 OFFCURVE",
"448 622 CURVE",
"535 671 LINE",
"535 745 OFFCURVE",
"401 794 OFFCURVE",
"308 794 CURVE SMOOTH",
"151 794 OFFCURVE",
"67 743 OFFCURVE",
"67 661 CURVE SMOOTH",
"67 608 OFFCURVE",
"104 542 OFFCURVE",
"212 520 CURVE"
);
},
{
closed = 1;
nodes = (
"355 450 LINE",
"562 450 LINE",
"562 520 LINE",
"355 520 LINE"
);
},
{
closed = 1;
nodes = (
"448 622 LINE",
"573 633 LINE",
"561 707 LINE",
"437 692 LINE"
);
},
{
closed = 1;
nodes = (
"25 450 LINE",
"100 450 LINE",
"100 520 LINE",
"25 520 LINE"
);
},
{
closed = 1;
nodes = (
"25 0 LINE",
"100 0 LINE",
"100 70 LINE",
"25 70 LINE"
);
},
{
closed = 1;
nodes = (
"354 0 LINE",
"449 0 LINE",
"449 70 LINE",
"354 70 LINE"
);
},
{
closed = 1;
nodes = (
"100 0 LINE",
"355 0 LINE",
"355 520 LINE",
"212 520 LINE",
"212 514 LINE",
"100 520 LINE"
);
}
);
width = 598;
},
{
associatedMasterId = "3D764B9D-F2BF-4097-BA7B-376B3300FA34";
components = (
{
name = idotless;
}
);
layerId = "C88CA292-129D-4797-8609-30976D4F527E";
name = "May 22 18, 10:53";
paths = (
{
closed = 1;
nodes = (
"430 520 LINE",
"293 540 OFFCURVE",
"245 590 OFFCURVE",
"245 645 CURVE SMOOTH",
"245 694 OFFCURVE",
"283 729 OFFCURVE",
"335 729 CURVE SMOOTH",
"397 729 OFFCURVE",
"437 678 OFFCURVE",
"448 622 CURVE",
"535 671 LINE",
"535 745 OFFCURVE",
"401 794 OFFCURVE",
"308 794 CURVE SMOOTH",
"151 794 OFFCURVE",
"67 743 OFFCURVE",
"67 661 CURVE SMOOTH",
"67 608 OFFCURVE",
"104 542 OFFCURVE",
"212 520 CURVE"
);
},
{
closed = 1;
nodes = (
"355 450 LINE",
"562 450 LINE",
"562 520 LINE",
"355 520 LINE"
);
},
{
closed = 1;
nodes = (
"448 622 LINE",
"573 633 LINE",
"561 707 LINE",
"437 692 LINE"
);
},
{
closed = 1;
nodes = (
"25 450 LINE",
"100 450 LINE",
"100 520 LINE",
"25 520 LINE"
);
},
{
closed = 1;
nodes = (
"25 0 LINE",
"100 0 LINE",
"100 70 LINE",
"25 70 LINE"
);
},
{
closed = 1;
nodes = (
"354 0 LINE",
"449 0 LINE",
"449 70 LINE",
"354 70 LINE"
);
}
);
width = 598;
},
{
associatedMasterId = "3D764B9D-F2BF-4097-BA7B-376B3300FA34";
components = (
{
name = idotless;
}
);
layerId = "4B9266BA-C68E-48EA-95E4-1CCCBA37D424";
name = "May 28 18, 21:38";
paths = (
{
closed = 1;
nodes = (
"410 520 LINE",
"273 540 OFFCURVE",
"225 590 OFFCURVE",
"225 645 CURVE SMOOTH",
"225 694 OFFCURVE",
"263 729 OFFCURVE",
"315 729 CURVE SMOOTH",
"377 729 OFFCURVE",
"417 678 OFFCURVE",
"428 622 CURVE",
"515 671 LINE",
"515 745 OFFCURVE",
"381 794 OFFCURVE",
"288 794 CURVE SMOOTH",
"131 794 OFFCURVE",
"47 743 OFFCURVE",
"47 661 CURVE SMOOTH",
"47 608 OFFCURVE",
"84 542 OFFCURVE",
"192 520 CURVE"
);
},
{
closed = 1;
nodes = (
"355 450 LINE",
"562 450 LINE",
"562 520 LINE",
"355 520 LINE"
);
},
{
closed = 1;
nodes = (
"428 622 LINE",
"568 638 LINE",
"556 712 LINE",
"417 688 LINE"
);
},
{
closed = 1;
nodes = (
"25 450 LINE",
"100 450 LINE",
"100 520 LINE",
"25 520 LINE"
);
},
{
closed = 1;
nodes = (
"25 0 LINE",
"100 0 LINE",
"100 70 LINE",
"25 70 LINE"
);
},
{
closed = 1;
nodes = (
"354 0 LINE",
"449 0 LINE",
"449 70 LINE",
"354 70 LINE"
);
}
);
width = 593;
}
);
leftMetricsKey = i;
rightMetricsKey = i;
unicode = 0066;
},
{
glyphname = i;
lastChange = "2018-05-29 08:48:25 +0000";
layers = (
{
layerId = "3D764B9D-F2BF-4097-BA7B-376B3300FA34";
paths = (
{
closed = 1;
nodes = (
"25 450 LINE",
"100 450 LINE",
"100 520 LINE",
"25 520 LINE"
);
},
{
closed = 1;
nodes = (
"25 0 LINE",
"100 0 LINE",
"100 70 LINE",
"25 70 LINE"
);
},
{
closed = 1;
nodes = (
"354 0 LINE",
"429 0 LINE",
"429 70 LINE",
"354 70 LINE"
);
},
{
closed = 1;
nodes = (
"325 539 OFFCURVE",
"373 566 OFFCURVE",
"373 622 CURVE SMOOTH",
"373 677 OFFCURVE",
"325 704 OFFCURVE",
"227 704 CURVE SMOOTH",
"129 704 OFFCURVE",
"81 677 OFFCURVE",
"81 622 CURVE SMOOTH",
"81 566 OFFCURVE",
"129 539 OFFCURVE",
"227 539 CURVE SMOOTH"
);
},
{
closed = 1;
nodes = (
"99 0 LINE",
"354 0 LINE",
"354 520 LINE",
"269 500 OFFCURVE",
"184 500 OFFCURVE",
"99 520 CURVE"
);
}
);
width = 454;
}
);
unicode = 0069;
},
{
glyphname = idotless;
lastChange = "2018-05-21 15:03:28 +0000";
layers = (
{
layerId = "3D764B9D-F2BF-4097-BA7B-376B3300FA34";
paths = (
{
closed = 1;
nodes = (
"100 0 LINE",
"355 0 LINE",
"355 520 LINE",
"100 520 LINE"
);
}
);
width = 455;
}
);
unicode = 0131;
},
{
glyphname = k;
lastChange = "2018-05-29 08:32:40 +0000";
layers = (
{
components = (
{
name = "_l-comp";
}
);
layerId = "3D764B9D-F2BF-4097-BA7B-376B3300FA34";
paths = (
{
closed = 1;
nodes = (
"339 213 LINE",
"962 490 LINE",
"901 405 LINE",
"901 565 LINE",
"962 520 LINE",
"549 520 LINE",
"623 416 LINE",
"311 277 LINE"
);
},
{
closed = 1;
nodes = (
"604 0 LINE",
"951 0 LINE",
"951 70 LINE",
"875 70 LINE",
"617 389 LINE",
"383 279 LINE"
);
},
{
closed = 1;
nodes = (
"759 450 LINE",
"759 520 LINE",
"540 520 LINE",
"540 450 LINE"
);
}
);
width = 996;
},
{
associatedMasterId = "3D764B9D-F2BF-4097-BA7B-376B3300FA34";
components = (
{
name = "_l-comp";
}
);
layerId = "CF029EF9-E80E-4E91-9133-8B924C7B8FF1";
name = "May 29 18, 10:31";
paths = (
{
closed = 1;
nodes = (
"339 213 LINE",
"871 450 LINE",
"871 520 LINE",
"549 520 LINE",
"623 416 LINE",
"311 277 LINE"
);
},
{
closed = 1;
nodes = (
"604 0 LINE",
"951 0 LINE",
"951 70 LINE",
"875 70 LINE",
"617 389 LINE",
"383 279 LINE"
);
},
{
closed = 1;
nodes = (
"951 450 LINE",
"951 520 LINE",
"540 520 LINE",
"540 450 LINE"
);
}
);
width = 996;
}
);
leftMetricsKey = i;
unicode = 006B;
},
{
glyphname = m;
lastChange = "2018-05-21 14:59:14 +0000";
layers = (
{
components = (
{
name = idotless;
},
{
name = "_serif-L";
transform = "{1, 0, 0, 1, 817, 0}";
},
{
name = "_serif-L";
transform = "{1, 0, 0, 1, 1281, 0}";
},
{
name = "_serif-L";
transform = "{1, 0, 0, 1, 25, 0}";
},
{
name = "_serif-L";
transform = "{1, 0, 0, 1, 25, 450}";
},
{
name = "_serif-L";
transform = "{1, 0, 0, 1, 355, 0}";
}
);
layerId = "3D764B9D-F2BF-4097-BA7B-376B3300FA34";
paths = (
{
closed = 1;
nodes = (
"371 406 OFFCURVE",
"423 425 OFFCURVE",
"465 425 CURVE SMOOTH",
"528 425 OFFCURVE",
"570 382 OFFCURVE",
"570 303 CURVE",
"570 0 LINE",
"818 0 LINE",
"818 421 LINE",
"804 421 LINE",
"774 499 OFFCURVE",
"697 530 OFFCURVE",
"608 530 CURVE SMOOTH",
"510 530 OFFCURVE",
"398 492 OFFCURVE",
"316 436 CURVE",
"316 364 LINE"
);
},
{
closed = 1;
nodes = (
"834 406 OFFCURVE",
"886 425 OFFCURVE",
"928 425 CURVE SMOOTH",
"991 425 OFFCURVE",
"1033 382 OFFCURVE",
"1033 303 CURVE",
"1033 0 LINE",
"1281 0 LINE",
"1281 340 LINE",
"1281 478 OFFCURVE",
"1186 530 OFFCURVE",
"1071 530 CURVE SMOOTH",
"973 530 OFFCURVE",
"861 505 OFFCURVE",
"779 452 CURVE",
"779 354 LINE"
);
},
{
closed = 0;
nodes = (
"354 0 LINE"
);
},
{
closed = 0;
nodes = (
"569 0 LINE"
);
}
);
width = 1381;
}
);
leftMetricsKey = i;
rightMetricsKey = i;
unicode = 006D;
},
{
glyphname = o;
lastChange = "2018-05-21 15:37:15 +0000";
layers = (
{
layerId = "3D764B9D-F2BF-4097-BA7B-376B3300FA34";
paths = (
{
closed = 1;
nodes = (
"20 76 OFFCURVE",
"167 -10 OFFCURVE",
"427 -10 CURVE SMOOTH",
"704 -10 OFFCURVE",
"841 101 OFFCURVE",
"841 264 CURVE SMOOTH",
"841 444 OFFCURVE",
"694 530 OFFCURVE",
"434 530 CURVE SMOOTH",
"157 530 OFFCURVE",
"20 419 OFFCURVE",
"20 251 CURVE SMOOTH"
);
},
{
closed = 1;
nodes = (
"281 444 OFFCURVE",
"361 481 OFFCURVE",
"424 481 CURVE SMOOTH",
"507 481 OFFCURVE",
"580 400 OFFCURVE",
"580 235 CURVE SMOOTH",
"580 77 OFFCURVE",
"500 40 OFFCURVE",
"437 40 CURVE SMOOTH",
"352 40 OFFCURVE",
"281 121 OFFCURVE",
"281 280 CURVE SMOOTH"
);
}
);
width = 861;
}
);
unicode = 006F;
},
{
glyphname = r;
lastChange = "2018-05-29 09:20:58 +0000";
layers = (
{
associatedMasterId = "3D764B9D-F2BF-4097-BA7B-376B3300FA34";
components = (
{
name = idotless;
}
);
layerId = "CBECD421-FF9E-4F4D-BBA9-36EF62BF3CB1";
name = "May 21 18, 14:30";
paths = (
{
closed = 1;
nodes = (
"389 414 OFFCURVE",
"429 428 OFFCURVE",
"462 428 CURVE SMOOTH",
"488 428 OFFCURVE",
"506 425 OFFCURVE",
"520 413 CURVE",
"540 532 LINE",
"467 532 OFFCURVE",
"387 505 OFFCURVE",
"332 380 CURVE",
"354 353 LINE"
);
},
{
closed = 1;
nodes = (
"573 310 LINE",
"622 517 LINE",
"602 526 OFFCURVE",
"569 532 OFFCURVE",
"540 532 CURVE",
"504 322 LINE"
);
}
);
width = 612;
},
{
components = (
{
name = idotless;
},
{
alignment = -1;
name = "_serif-L";
transform = "{1, 0, 0, 1, 355, 0}";
},
{
alignment = -1;
name = "_serif-L";
transform = "{1, 0, 0, 1, 25, 0}";
},
{
alignment = -1;
name = "_serif-L";
transform = "{1, 0, 0, 1, 25, 450}";
}
);
layerId = "3D764B9D-F2BF-4097-BA7B-376B3300FA34";
paths = (
{
closed = 1;
nodes = (
"527 524 LINE",
"457 524 OFFCURVE",
"377 507 OFFCURVE",
"332 370 CURVE",
"354 343 LINE",
"379 377 OFFCURVE",
"409 388 OFFCURVE",
"433 388 CURVE SMOOTH",
"468 388 OFFCURVE",
"482 370 OFFCURVE",
"487 326 CURVE",
"517 471 LINE"
);
},
{
closed = 1;
nodes = (
"487 303 LINE",
"587 303 LINE",
"587 520 LINE",
"568 523 OFFCURVE",
"552 524 OFFCURVE",
"527 524 CURVE",
"487 437 LINE"
);
}
);
width = 597;
},
{
associatedMasterId = "3D764B9D-F2BF-4097-BA7B-376B3300FA34";
components = (
{
name = idotless;
},
{
alignment = -1;
name = "_serif-L";
transform = "{1, 0, 0, 1, 355, 0}";
},
{
alignment = -1;
name = "_serif-L";
transform = "{1, 0, 0, 1, 25, 0}";
},
{
alignment = -1;
name = "_serif-L";
transform = "{1, 0, 0, 1, 25, 450}";
}
);
layerId = "E33A4696-7065-4BC5-9DA1-1D5B5039D181";
name = "May 21 18, 14:58";
paths = (
{
closed = 1;
nodes = (
"389 414 OFFCURVE",
"429 428 OFFCURVE",
"462 428 CURVE SMOOTH",
"488 428 OFFCURVE",
"506 425 OFFCURVE",
"520 413 CURVE",
"540 532 LINE",
"467 532 OFFCURVE",
"387 505 OFFCURVE",
"332 380 CURVE",
"354 353 LINE"
);
},
{
closed = 1;
nodes = (
"556 313 LINE",
"637 507 LINE",
"618 526 OFFCURVE",
"569 532 OFFCURVE",
"540 532 CURVE",
"504 322 LINE"
);
}
);
width = 627;
},
{
associatedMasterId = "3D764B9D-F2BF-4097-BA7B-376B3300FA34";
components = (
{
name = idotless;
},
{
alignment = -1;
name = "_serif-L";
transform = "{1, 0, 0, 1, 355, 0}";
},
{
alignment = -1;
name = "_serif-L";
transform = "{1, 0, 0, 1, 25, 0}";
},
{
alignment = -1;
name = "_serif-L";
transform = "{1, 0, 0, 1, 25, 450}";
}
);
layerId = "60CD18DA-53ED-46E9-967B-0BC215A92656";
name = "May 21 18, 20:44";
paths = (
{
closed = 1;
nodes = (
"389 414 OFFCURVE",
"429 428 OFFCURVE",
"462 428 CURVE SMOOTH",
"488 428 OFFCURVE",
"506 425 OFFCURVE",
"520 413 CURVE",
"540 532 LINE",
"467 532 OFFCURVE",
"387 505 OFFCURVE",
"332 380 CURVE",
"354 353 LINE"
);
},
{
closed = 1;
nodes = (
"566 313 LINE",
"647 507 LINE",
"618 526 OFFCURVE",
"569 532 OFFCURVE",
"540 532 CURVE",
"504 322 LINE"
);
}
);
width = 657;
},
{
associatedMasterId = "3D764B9D-F2BF-4097-BA7B-376B3300FA34";
components = (
{
name = idotless;
},
{
alignment = -1;
name = "_serif-L";
transform = "{1, 0, 0, 1, 355, 0}";
},
{
alignment = -1;
name = "_serif-L";
transform = "{1, 0, 0, 1, 25, 0}";
},
{
alignment = -1;
name = "_serif-L";
transform = "{1, 0, 0, 1, 25, 450}";
}
);
layerId = "C39CF6B3-311E-483D-B482-7C9F6D5BA259";
name = "May 21 18, 20:45";
paths = (
{
closed = 1;
nodes = (
"389 414 OFFCURVE",
"429 428 OFFCURVE",
"462 428 CURVE SMOOTH",
"488 428 OFFCURVE",
"520 420 OFFCURVE",
"515 386 CURVE",
"540 532 LINE",
"467 532 OFFCURVE",
"387 505 OFFCURVE",
"332 380 CURVE",
"354 353 LINE"
);
},
{
closed = 1;
nodes = (
"566 313 LINE",
"647 507 LINE",
"618 526 OFFCURVE",
"569 532 OFFCURVE",
"540 532 CURVE",
"504 322 LINE"
);
}
);
visible = 1;
width = 657;
},
{
associatedMasterId = "3D764B9D-F2BF-4097-BA7B-376B3300FA34";
components = (
{
name = idotless;
},
{
alignment = -1;
name = "_serif-L";
transform = "{1, 0, 0, 1, 355, 0}";
},
{
alignment = -1;
name = "_serif-L";
transform = "{1, 0, 0, 1, 25, 0}";
},
{
alignment = -1;
name = "_serif-L";
transform = "{1, 0, 0, 1, 25, 450}";
}
);
layerId = "AF93C2DB-F81C-412C-92C8-F503FB36A081";
name = "May 27 18, 13:34";
paths = (
{
closed = 1;
nodes = (
"379 397 OFFCURVE",
"419 418 OFFCURVE",
"442 418 CURVE SMOOTH",
"468 418 OFFCURVE",
"500 410 OFFCURVE",
"495 376 CURVE",
"520 532 LINE",
"457 532 OFFCURVE",
"377 507 OFFCURVE",
"332 370 CURVE",
"354 343 LINE"
);
},
{
closed = 1;
nodes = (
"546 303 LINE",
"627 507 LINE",
"598 526 OFFCURVE",
"549 532 OFFCURVE",
"520 532 CURVE",
"484 312 LINE"
);
}
);
width = 637;
},
{
associatedMasterId = "3D764B9D-F2BF-4097-BA7B-376B3300FA34";
components = (
{
name = idotless;
},
{
alignment = -1;
name = "_serif-L";
transform = "{1, 0, 0, 1, 355, 0}";
},
{
alignment = -1;
name = "_serif-L";
transform = "{1, 0, 0, 1, 25, 0}";
},
{
alignment = -1;
name = "_serif-L";
transform = "{1, 0, 0, 1, 25, 450}";
}
);
layerId = "0DC0F0F5-DBD3-4915-BF71-12FB6F5FEDB0";
name = "May 29 18, 10:43";
paths = (
{
closed = 1;
nodes = (
"517 522 LINE",
"457 522 OFFCURVE",
"377 507 OFFCURVE",
"332 370 CURVE",
"354 343 LINE",
"379 377 OFFCURVE",
"409 388 OFFCURVE",
"433 388 CURVE SMOOTH",
"468 388 OFFCURVE",
"482 370 OFFCURVE",
"487 316 CURVE",
"517 471 LINE"
);
},
{
closed = 1;
nodes = (
"487 303 LINE",
"587 303 LINE",
"587 507 LINE",
"568 520 OFFCURVE",
"542 522 OFFCURVE",
"517 522 CURVE",
"487 437 LINE"
);
}
);
width = 597;
},
{
associatedMasterId = "3D764B9D-F2BF-4097-BA7B-376B3300FA34";
components = (
{
name = idotless;
},
{
alignment = -1;
name = "_serif-L";
transform = "{1, 0, 0, 1, 355, 0}";
},
{
alignment = -1;
name = "_serif-L";
transform = "{1, 0, 0, 1, 25, 0}";
},
{
alignment = -1;
name = "_serif-L";
transform = "{1, 0, 0, 1, 25, 450}";
}
);
layerId = "1927A4C0-49AA-4F47-99DA-28A25F41E8A4";
name = "May 29 18, 10:46";
paths = (
{
closed = 1;
nodes = (
"517 522 LINE",
"457 522 OFFCURVE",
"377 507 OFFCURVE",
"332 370 CURVE",
"354 343 LINE",
"379 377 OFFCURVE",
"409 388 OFFCURVE",
"433 388 CURVE SMOOTH",
"468 388 OFFCURVE",
"482 370 OFFCURVE",
"487 366 CURVE",
"517 471 LINE"
);
},
{
closed = 1;
nodes = (
"487 303 LINE",
"557 303 LINE",
"557 507 LINE",
"517 522 LINE",
"487 437 LINE"
);
},
{
closed = 1;
nodes = (
"557 507 LINE",
"557 561 LINE",
"487 561 LINE",
"487 507 LINE"
);
}
);
width = 597;
}
);
leftMetricsKey = i;
rightMetricsKey = "=o-10";
unicode = 0072;
},
{
color = 9;
glyphname = s;
lastChange = "2018-05-29 09:13:50 +0000";
layers = (
{
associatedMasterId = "3D764B9D-F2BF-4097-BA7B-376B3300FA34";
layerId = "37BCEA15-B091-4A6F-BA58-AE2699BFD48B";
name = "May 21 18, 14:31";
paths = (
{
closed = 1;
nodes = (
"84 70 LINE",
"153 17 OFFCURVE",
"262 -10 OFFCURVE",
"407 -10 CURVE SMOOTH",
"684 -10 OFFCURVE",
"821 101 OFFCURVE",
"821 264 CURVE SMOOTH",
"821 264 OFFCURVE",
"821 264 OFFCURVE",
"821 264 CURVE SMOOTH",
"559 264 LINE",
"560 255 OFFCURVE",
"560 245 OFFCURVE",
"560 235 CURVE SMOOTH",
"560 77 OFFCURVE",
"480 40 OFFCURVE",
"417 40 CURVE SMOOTH",
"351 40 OFFCURVE",
"294 89 OFFCURVE",
"271 185 CURVE"
);
},
{
closed = 1;
nodes = (
"545 352 LINE",
"552 327 OFFCURVE",
"557 297 OFFCURVE",
"559 264 CURVE",
"821 264 LINE",
"821 351 OFFCURVE",
"787 416 OFFCURVE",
"722 460 CURVE"
);
},
{
closed = 1;
nodes = (
"271 185 LINE",
"265 208 OFFCURVE",
"262 235 OFFCURVE",
"261 264 CURVE",
"0 264 LINE",
"0 260 OFFCURVE",
"0 255 OFFCURVE",
"0 251 CURVE SMOOTH",
"0 173 OFFCURVE",
"29 113 OFFCURVE",
"84 70 CURVE"
);
},
{
closed = 1;
nodes = (
"722 460 LINE",
"652 507 OFFCURVE",
"548 530 OFFCURVE",
"414 530 CURVE SMOOTH",
"144 530 OFFCURVE",
"7 425 OFFCURVE",
"0 264 CURVE",
"261 264 LINE",
"261 269 OFFCURVE",
"261 275 OFFCURVE",
"261 280 CURVE SMOOTH",
"261 444 OFFCURVE",
"341 481 OFFCURVE",
"404 481 CURVE SMOOTH",
"464 481 OFFCURVE",
"519 439 OFFCURVE",
"545 352 CURVE"
);
}
);
width = 821;
},
{
layerId = "3D764B9D-F2BF-4097-BA7B-376B3300FA34";
paths = (
{
closed = 1;
nodes = (
"63 293 OFFCURVE",
"127 238 OFFCURVE",
"290 201 CURVE SMOOTH",
"430 169 OFFCURVE",
"434 128 OFFCURVE",
"434 104 CURVE SMOOTH",
"434 65 OFFCURVE",
"389 40 OFFCURVE",
"330 40 CURVE SMOOTH",
"245 40 OFFCURVE",
"155 81 OFFCURVE",
"128 188 CURVE",
"107 157 LINE",
"81 42 LINE",
"145 3 OFFCURVE",
"206 -10 OFFCURVE",
"339 -10 CURVE SMOOTH",
"495 -10 OFFCURVE",
"640 30 OFFCURVE",
"640 157 CURVE SMOOTH",
"640 278 OFFCURVE",
"533 320 OFFCURVE",
"409 347 CURVE SMOOTH",
"300 371 OFFCURVE",
"278 397 OFFCURVE",
"278 428 CURVE SMOOTH",
"278 461 OFFCURVE",
"312 480 OFFCURVE",
"358 480 CURVE SMOOTH",
"423 480 OFFCURVE",
"508 439 OFFCURVE",
"526 373 CURVE",
"583 404 LINE",
"595 478 LINE",
"538 517 OFFCURVE",
"456 530 OFFCURVE",
"363 530 CURVE SMOOTH",
"181 530 OFFCURVE",
"63 477 OFFCURVE",
"63 378 CURVE SMOOTH"
);
},
{
closed = 1;
nodes = (
"585 361 LINE",
"622 523 LINE",
"553 535 LINE",
"526 373 LINE"
);
},
{
closed = 1;
nodes = (
"59 200 LINE",
"25 -3 LINE",
"94 -15 LINE",
"128 188 LINE"
);
},
{
closed = 0;
nodes = (
"595 478 LINE"
);
}
);
width = 665;
},
{
associatedMasterId = "3D764B9D-F2BF-4097-BA7B-376B3300FA34";
layerId = "7986567B-B5B9-4D17-8998-DD03ABA0C1DE";
name = "May 21 18, 14:32";
paths = (
{
closed = 1;
nodes = (
"94 17 OFFCURVE",
"233 -10 OFFCURVE",
"358 -10 CURVE SMOOTH",
"554 -10 OFFCURVE",
"698 30 OFFCURVE",
"698 157 CURVE SMOOTH",
"698 278 OFFCURVE",
"554 312 OFFCURVE",
"430 337 CURVE SMOOTH",
"301 361 OFFCURVE",
"269 397 OFFCURVE",
"269 428 CURVE SMOOTH",
"269 461 OFFCURVE",
"303 481 OFFCURVE",
"359 481 CURVE SMOOTH",
"434 481 OFFCURVE",
"479 439 OFFCURVE",
"495 372 CURVE",
"672 430 LINE",
"602 507 OFFCURVE",
"498 530 OFFCURVE",
"374 530 CURVE SMOOTH",
"192 530 OFFCURVE",
"74 477 OFFCURVE",
"74 378 CURVE SMOOTH",
"74 303 OFFCURVE",
"147 251 OFFCURVE",
"344 215 CURVE SMOOTH",
"451 196 OFFCURVE",
"472 166 OFFCURVE",
"472 124 CURVE SMOOTH",
"472 75 OFFCURVE",
"437 40 OFFCURVE",
"368 40 CURVE SMOOTH",
"292 40 OFFCURVE",
"235 89 OFFCURVE",
"212 165 CURVE",
"25 100 LINE"
);
},
{
closed = 0;
nodes = (
"339 211 LINE"
);
}
);
width = 821;
},
{
associatedMasterId = "3D764B9D-F2BF-4097-BA7B-376B3300FA34";
layerId = "1F86051B-A29F-4145-AFAF-561F5502CADE";
name = "May 21 18, 14:32";
paths = (
{
closed = 1;
nodes = (
"627 476 LINE",
"567 515 OFFCURVE",
"497 530 OFFCURVE",
"404 530 CURVE SMOOTH",
"222 530 OFFCURVE",
"104 477 OFFCURVE",
"104 378 CURVE SMOOTH",
"104 293 OFFCURVE",
"177 242 OFFCURVE",
"341 211 CURVE SMOOTH",
"481 185 OFFCURVE",
"492 156 OFFCURVE",
"492 114 CURVE SMOOTH",
"492 75 OFFCURVE",
"447 40 OFFCURVE",
"378 40 CURVE",
"368 -10 LINE",
"554 -10 OFFCURVE",
"698 30 OFFCURVE",
"698 157 CURVE SMOOTH",
"698 278 OFFCURVE",
"584 314 OFFCURVE",
"460 337 CURVE SMOOTH",
"331 361 OFFCURVE",
"299 397 OFFCURVE",
"299 428 CURVE SMOOTH",
"299 461 OFFCURVE",
"333 481 OFFCURVE",
"389 481 CURVE SMOOTH",
"464 481 OFFCURVE",
"549 439 OFFCURVE",
"567 373 CURVE",
"624 404 LINE"
);
},
{
closed = 1;
nodes = (
"139 42 LINE",
"203 3 OFFCURVE",
"265 -10 OFFCURVE",
"368 -10 CURVE",
"378 40 LINE",
"303 40 OFFCURVE",
"213 81 OFFCURVE",
"186 188 CURVE",
"165 157 LINE"
);
},
{
closed = 1;
nodes = (
"186 0 LINE",
"186 188 LINE",
"116 188 LINE",
"116 0 LINE"
);
},
{
closed = 1;
nodes = (
"637 373 LINE",
"637 520 LINE",
"567 520 LINE",
"567 373 LINE"
);
}
);
width = 821;
},
{
associatedMasterId = "3D764B9D-F2BF-4097-BA7B-376B3300FA34";
layerId = "3DAB34AE-5B65-4B42-B028-970035C8516B";
name = "May 21 18, 14:38";
paths = (
{
closed = 1;
nodes = (
"46 293 OFFCURVE",
"119 244 OFFCURVE",
"283 211 CURVE SMOOTH",
"443 179 OFFCURVE",
"454 128 OFFCURVE",
"454 104 CURVE SMOOTH",
"454 65 OFFCURVE",
"409 40 OFFCURVE",
"350 40 CURVE SMOOTH",
"245 40 OFFCURVE",
"155 81 OFFCURVE",
"128 188 CURVE",
"107 157 LINE",
"81 42 LINE",
"145 3 OFFCURVE",
"206 -10 OFFCURVE",
"339 -10 CURVE SMOOTH",
"495 -10 OFFCURVE",
"640 30 OFFCURVE",
"640 157 CURVE SMOOTH",
"640 278 OFFCURVE",
"526 314 OFFCURVE",
"402 337 CURVE SMOOTH",
"273 361 OFFCURVE",
"241 397 OFFCURVE",
"241 428 CURVE SMOOTH",
"241 461 OFFCURVE",
"275 481 OFFCURVE",
"331 481 CURVE SMOOTH",
"406 481 OFFCURVE",
"491 439 OFFCURVE",
"509 373 CURVE",
"566 404 LINE",
"585 478 LINE",
"521 517 OFFCURVE",
"439 530 OFFCURVE",
"346 530 CURVE SMOOTH",
"164 530 OFFCURVE",
"46 477 OFFCURVE",
"46 378 CURVE SMOOTH"
);
},
{
closed = 1;
nodes = (
"578 361 LINE",
"605 523 LINE",
"536 535 LINE",
"509 373 LINE"
);
},
{
closed = 1;
nodes = (
"59 200 LINE",
"25 -3 LINE",
"94 -15 LINE",
"128 188 LINE"
);
}
);
width = 665;
},
{
associatedMasterId = "3D764B9D-F2BF-4097-BA7B-376B3300FA34";
layerId = "14370AA6-8F61-4B3A-8F06-50476A676D8E";
name = "May 21 18, 16:21";
paths = (
{
closed = 1;
nodes = (
"134 17 OFFCURVE",
"213 -10 OFFCURVE",
"338 -10 CURVE SMOOTH",
"554 -10 OFFCURVE",
"698 30 OFFCURVE",
"698 157 CURVE SMOOTH",
"698 278 OFFCURVE",
"554 312 OFFCURVE",
"430 337 CURVE SMOOTH",
"301 361 OFFCURVE",
"269 397 OFFCURVE",
"269 428 CURVE SMOOTH",
"269 461 OFFCURVE",
"303 481 OFFCURVE",
"359 481 CURVE SMOOTH",
"434 481 OFFCURVE",
"479 439 OFFCURVE",
"495 372 CURVE",
"652 430 LINE",
"602 507 OFFCURVE",
"498 530 OFFCURVE",
"374 530 CURVE SMOOTH",
"192 530 OFFCURVE",
"74 477 OFFCURVE",
"74 378 CURVE SMOOTH",
"74 303 OFFCURVE",
"147 251 OFFCURVE",
"344 215 CURVE SMOOTH",
"451 196 OFFCURVE",
"472 166 OFFCURVE",
"472 124 CURVE SMOOTH",
"472 75 OFFCURVE",
"437 40 OFFCURVE",
"368 40 CURVE SMOOTH",
"292 40 OFFCURVE",
"235 89 OFFCURVE",
"222 165 CURVE",
"85 100 LINE"
);
},
{
closed = 1;
nodes = (
"495 372 LINE",
"692 372 LINE",
"692 442 LINE",
"495 442 LINE"
);
},
{
closed = 1;
nodes = (
"45 95 LINE",
"222 95 LINE",
"222 165 LINE",
"45 165 LINE"
);
}
);
width = 821;
},
{
associatedMasterId = "3D764B9D-F2BF-4097-BA7B-376B3300FA34";
layerId = "0E5A726F-D84C-41ED-A761-4C4AE4DB5946";
name = "May 21 18, 17:59";
paths = (
{
closed = 1;
nodes = (
"350 338 LINE",
"195 405 OFFCURVE",
"231 473 OFFCURVE",
"268 504 CURVE SMOOTH",
"312 541 OFFCURVE",
"380 524 OFFCURVE",
"452 448 CURVE",
"571 630 LINE",
"477 700 OFFCURVE",
"320 632 OFFCURVE",
"211 541 CURVE SMOOTH",
"52 407 OFFCURVE",
"31 245 OFFCURVE",
"207 203 CURVE"
);
},
{
closed = 1;
nodes = (
"207 203 LINE",
"362 136 OFFCURVE",
"326 68 OFFCURVE",
"289 37 CURVE SMOOTH",
"245 0 OFFCURVE",
"177 17 OFFCURVE",
"106 93 CURVE",
"-13 -89 LINE",
"80 -159 OFFCURVE",
"237 -91 OFFCURVE",
"347 1 CURVE SMOOTH",
"505 134 OFFCURVE",
"526 296 OFFCURVE",
"351 338 CURVE"
);
}
);
width = 821;
},
{
associatedMasterId = "3D764B9D-F2BF-4097-BA7B-376B3300FA34";
layerId = "D7BA80A4-D335-4D07-B17C-E6AE5E634E27";
name = "May 21 18, 20:10";
paths = (
{
closed = 1;
nodes = (
"53 293 OFFCURVE",
"126 244 OFFCURVE",
"290 211 CURVE SMOOTH",
"450 179 OFFCURVE",
"454 128 OFFCURVE",
"454 104 CURVE SMOOTH",
"454 65 OFFCURVE",
"409 40 OFFCURVE",
"350 40 CURVE SMOOTH",
"245 40 OFFCURVE",
"155 81 OFFCURVE",
"128 188 CURVE",
"107 157 LINE",
"81 42 LINE",
"145 3 OFFCURVE",
"206 -10 OFFCURVE",
"339 -10 CURVE SMOOTH",
"495 -10 OFFCURVE",
"640 30 OFFCURVE",
"640 157 CURVE SMOOTH",
"640 278 OFFCURVE",
"533 314 OFFCURVE",
"409 337 CURVE SMOOTH",
"280 361 OFFCURVE",
"248 397 OFFCURVE",
"248 428 CURVE SMOOTH",
"248 461 OFFCURVE",
"282 480 OFFCURVE",
"338 480 CURVE SMOOTH",
"413 480 OFFCURVE",
"498 439 OFFCURVE",
"516 373 CURVE",
"573 404 LINE",
"585 478 LINE",
"528 517 OFFCURVE",
"446 530 OFFCURVE",
"353 530 CURVE SMOOTH",
"171 530 OFFCURVE",
"53 477 OFFCURVE",
"53 378 CURVE SMOOTH"
);
},
{
closed = 1;
nodes = (
"585 361 LINE",
"612 523 LINE",
"543 535 LINE",
"516 373 LINE"
);
},
{
closed = 1;
nodes = (
"59 200 LINE",
"25 -3 LINE",
"94 -15 LINE",
"128 188 LINE"
);
},
{
closed = 0;
nodes = (
"585 478 LINE"
);
}
);
width = 665;
},
{
associatedMasterId = "3D764B9D-F2BF-4097-BA7B-376B3300FA34";
layerId = "9940A3AB-5331-4EEB-A34D-E0811F8B2C3C";
name = "May 21 18, 21:25";
paths = (
{
closed = 1;
nodes = (
"53 293 OFFCURVE",
"127 248 OFFCURVE",
"290 211 CURVE SMOOTH",
"430 179 OFFCURVE",
"434 128 OFFCURVE",
"434 104 CURVE SMOOTH",
"434 65 OFFCURVE",
"389 40 OFFCURVE",
"330 40 CURVE SMOOTH",
"245 40 OFFCURVE",
"155 81 OFFCURVE",
"128 188 CURVE",
"107 157 LINE",
"81 42 LINE",
"145 3 OFFCURVE",
"206 -10 OFFCURVE",
"339 -10 CURVE SMOOTH",
"495 -10 OFFCURVE",
"640 30 OFFCURVE",
"640 157 CURVE SMOOTH",
"640 278 OFFCURVE",
"533 310 OFFCURVE",
"409 337 CURVE SMOOTH",
"300 361 OFFCURVE",
"268 397 OFFCURVE",
"268 428 CURVE SMOOTH",
"268 461 OFFCURVE",
"302 480 OFFCURVE",
"348 480 CURVE SMOOTH",
"413 480 OFFCURVE",
"498 439 OFFCURVE",
"516 373 CURVE",
"573 404 LINE",
"585 478 LINE",
"528 517 OFFCURVE",
"446 530 OFFCURVE",
"353 530 CURVE SMOOTH",
"171 530 OFFCURVE",
"53 477 OFFCURVE",
"53 378 CURVE SMOOTH"
);
},
{
closed = 1;
nodes = (
"585 361 LINE",
"612 523 LINE",
"543 535 LINE",
"516 373 LINE"
);
},
{
closed = 1;
nodes = (
"59 200 LINE",
"25 -3 LINE",
"94 -15 LINE",
"128 188 LINE"
);
},
{
closed = 0;
nodes = (
"585 478 LINE"
);
}
);
width = 665;
},
{
associatedMasterId = "3D764B9D-F2BF-4097-BA7B-376B3300FA34";
layerId = "46CD4DA5-135C-452D-9C56-26156B9C512E";
name = "May 29 18, 11:13";
paths = (
{
closed = 1;
nodes = (
"63 293 OFFCURVE",
"127 238 OFFCURVE",
"290 201 CURVE SMOOTH",
"430 169 OFFCURVE",
"434 128 OFFCURVE",
"434 104 CURVE SMOOTH",
"434 65 OFFCURVE",
"389 40 OFFCURVE",
"330 40 CURVE SMOOTH",
"245 40 OFFCURVE",
"155 81 OFFCURVE",
"128 188 CURVE",
"107 157 LINE",
"81 42 LINE",
"145 3 OFFCURVE",
"206 -10 OFFCURVE",
"339 -10 CURVE SMOOTH",
"495 -10 OFFCURVE",
"640 30 OFFCURVE",
"640 157 CURVE SMOOTH",
"640 278 OFFCURVE",
"533 320 OFFCURVE",
"409 347 CURVE SMOOTH",
"300 371 OFFCURVE",
"278 397 OFFCURVE",
"278 428 CURVE SMOOTH",
"278 461 OFFCURVE",
"312 480 OFFCURVE",
"358 480 CURVE SMOOTH",
"423 480 OFFCURVE",
"508 439 OFFCURVE",
"526 373 CURVE",
"583 404 LINE",
"595 478 LINE",
"538 517 OFFCURVE",
"456 530 OFFCURVE",
"363 530 CURVE SMOOTH",
"181 530 OFFCURVE",
"63 477 OFFCURVE",
"63 378 CURVE SMOOTH"
);
},
{
closed = 1;
nodes = (
"585 361 LINE",
"622 523 LINE",
"553 535 LINE",
"526 373 LINE"
);
},
{
closed = 1;
nodes = (
"59 200 LINE",
"25 -3 LINE",
"94 -15 LINE",
"128 188 LINE"
);
},
{
closed = 0;
nodes = (
"595 478 LINE"
);
}
);
visible = 1;
width = 665;
}
);
leftMetricsKey = i;
rightMetricsKey = i;
unicode = 0073;
},
{
glyphname = t;
lastChange = "2018-05-29 09:24:38 +0000";
layers = (
{
layerId = "3D764B9D-F2BF-4097-BA7B-376B3300FA34";
paths = (
{
closed = 1;
nodes = (
"25 450 LINE",
"100 450 LINE",
"100 520 LINE",
"25 520 LINE"
);
},
{
closed = 1;
nodes = (
"354 0 LINE",
"479 0 LINE",
"479 70 LINE",
"354 70 LINE"
);
},
{
closed = 1;
nodes = (
"354 450 LINE",
"499 450 LINE",
"499 520 LINE",
"354 520 LINE"
);
},
{
closed = 1;
nodes = (
"208 0 LINE",
"354 0 LINE",
"354 700 LINE",
"287 700 LINE",
"100 520 LINE",
"100 105 LINE"
);
}
);
width = 524;
}
);
leftMetricsKey = i;
rightMetricsKey = i;
unicode = 0074;
},
{
glyphname = u;
lastChange = "2018-05-29 08:46:45 +0000";
layers = (
{
components = (
{
name = "_rama-u";
},
{
alignment = -1;
name = idotless;
transform = "{1, 0, 0, 1, 462, 0}";
},
{
name = "_serif-L";
transform = "{1, 0, 0, 1, 487, 450}";
},
{
name = "_serif-L";
transform = "{1, 0, 0, 1, 817, 0}";
}
);
layerId = "3D764B9D-F2BF-4097-BA7B-376B3300FA34";
width = 937;
},
{
associatedMasterId = "3D764B9D-F2BF-4097-BA7B-376B3300FA34";
layerId = "9273089F-4C56-4BF5-80FE-D4DF7121263B";
name = "May 21 18, 14:40";
paths = (
{
closed = 1;
nodes = (
"856 520 LINE",
"602 520 LINE",
"602 0 LINE",
"856 0 LINE"
);
},
{
closed = 1;
nodes = (
"558 124 OFFCURVE",
"507 106 OFFCURVE",
"475 106 CURVE SMOOTH",
"411 106 OFFCURVE",
"368 149 OFFCURVE",
"368 228 CURVE",
"368 520 LINE",
"120 520 LINE",
"120 180 LINE",
"120 42 OFFCURVE",
"245 -10 OFFCURVE",
"360 -10 CURVE SMOOTH",
"458 -10 OFFCURVE",
"540 28 OFFCURVE",
"602 84 CURVE",
"602 161 LINE"
);
},
{
closed = 1;
nodes = (
"931 70 LINE",
"856 70 LINE",
"856 0 LINE",
"931 0 LINE"
);
},
{
closed = 1;
nodes = (
"602 520 LINE",
"527 520 LINE",
"527 450 LINE",
"602 450 LINE"
);
},
{
closed = 1;
nodes = (
"120 520 LINE",
"45 520 LINE",
"45 450 LINE",
"120 450 LINE"
);
}
);
width = 600;
}
);
leftMetricsKey = i;
rightMetricsKey = i;
unicode = 0075;
},
{
glyphname = v;
lastChange = "2018-05-21 16:19:42 +0000";
layers = (
{
layerId = "3D764B9D-F2BF-4097-BA7B-376B3300FA34";
paths = (
{
closed = 1;
nodes = (
"304 0 LINE",
"520 0 LINE",
"520 106 LINE",
"353 520 LINE",
"226 520 LINE",
"107 520 LINE",
"95 501 LINE"
);
},
{
closed = 1;
nodes = (
"706 520 LINE",
"649 520 LINE",
"480 46 LINE",
"507 0 LINE",
"540 0 LINE",
"718 501 LINE"
);
},
{
closed = 1;
nodes = (
"50 521 LINE",
"50 451 LINE",
"458 451 LINE",
"458 521 LINE"
);
},
{
closed = 1;
nodes = (
"557 521 LINE",
"557 451 LINE",
"787 451 LINE",
"787 521 LINE"
);
}
);
width = 837;
}
);
unicode = 0076;
},
{
glyphname = w;
lastChange = "2018-05-21 17:15:56 +0000";
layers = (
{
layerId = "3D764B9D-F2BF-4097-BA7B-376B3300FA34";
paths = (
{
closed = 1;
nodes = (
"268 0 LINE",
"444 0 LINE",
"484 106 LINE",
"317 520 LINE",
"71 520 LINE",
"59 501 LINE"
);
},
{
closed = 1;
nodes = (
"630 520 LINE",
"573 520 LINE",
"404 46 LINE",
"431 0 LINE",
"464 0 LINE",
"642 501 LINE"
);
},
{
closed = 1;
nodes = (
"658 0 LINE",
"784 0 LINE",
"824 106 LINE",
"657 520 LINE",
"580 520 LINE",
"461 520 LINE",
"441 520 LINE"
);
},
{
closed = 1;
nodes = (
"970 520 LINE",
"913 520 LINE",
"744 46 LINE",
"771 0 LINE",
"804 0 LINE",
"982 501 LINE"
);
},
{
closed = 1;
nodes = (
"801 520 LINE",
"801 450 LINE",
"1031 450 LINE",
"1031 520 LINE"
);
},
{
closed = 1;
nodes = (
"20 520 LINE",
"20 450 LINE",
"381 450 LINE",
"381 520 LINE"
);
},
{
closed = 1;
nodes = (
"431 520 LINE",
"431 450 LINE",
"751 450 LINE",
"751 520 LINE"
);
}
);
width = 1051;
},
{
associatedMasterId = "3D764B9D-F2BF-4097-BA7B-376B3300FA34";
layerId = "4D061F88-87BE-4F20-AFBA-2B2F88D4DB16";
name = "May 21 18, 19:15";
paths = (
{
closed = 1;
nodes = (
"268 0 LINE",
"444 0 LINE",
"484 106 LINE",
"317 520 LINE",
"71 520 LINE",
"59 501 LINE"
);
},
{
closed = 1;
nodes = (
"630 520 LINE",
"573 520 LINE",
"404 46 LINE",
"431 0 LINE",
"464 0 LINE",
"642 501 LINE"
);
},
{
closed = 1;
nodes = (
"628 0 LINE",
"754 0 LINE",
"794 106 LINE",
"637 520 LINE",
"560 520 LINE",
"441 520 LINE",
"421 520 LINE"
);
},
{
closed = 1;
nodes = (
"940 520 LINE",
"883 520 LINE",
"714 46 LINE",
"741 0 LINE",
"774 0 LINE",
"952 501 LINE"
);
},
{
closed = 1;
nodes = (
"791 520 LINE",
"791 450 LINE",
"1001 450 LINE",
"1001 520 LINE"
);
},
{
closed = 1;
nodes = (
"20 520 LINE",
"20 450 LINE",
"361 450 LINE",
"361 520 LINE"
);
},
{
closed = 1;
nodes = (
"411 520 LINE",
"411 450 LINE",
"741 450 LINE",
"741 520 LINE"
);
}
);
width = 1031;
}
);
leftMetricsKey = o;
rightMetricsKey = o;
unicode = 0077;
},
{
glyphname = x;
lastChange = "2018-05-29 09:35:49 +0000";
layers = (
{
guideLines = (
{
angle = 90;
position = "{25, 35}";
},
{
angle = 270;
position = "{775, 35}";
}
);
layerId = "3D764B9D-F2BF-4097-BA7B-376B3300FA34";
paths = (
{
closed = 1;
nodes = (
"449 0 LINE",
"738 0 LINE",
"534 292 LINE",
"521 310 LINE",
"374 520 LINE",
"217 520 LINE",
"98 520 LINE",
"86 501 LINE"
);
},
{
closed = 1;
nodes = (
"61 521 LINE",
"61 451 LINE",
"479 451 LINE",
"479 521 LINE"
);
},
{
closed = 1;
nodes = (
"337 70 LINE",
"337 0 LINE",
"775 0 LINE",
"775 70 LINE"
);
},
{
closed = 1;
nodes = (
"698 520 LINE",
"641 520 LINE",
"440 243 LINE",
"467 197 LINE",
"500 197 LINE",
"710 501 LINE"
);
},
{
closed = 1;
nodes = (
"509 521 LINE",
"509 451 LINE",
"769 451 LINE",
"769 521 LINE"
);
},
{
closed = 1;
nodes = (
"96 1 LINE",
"153 1 LINE",
"404 278 LINE",
"377 324 LINE",
"344 324 LINE",
"84 20 LINE"
);
},
{
closed = 1;
nodes = (
"305 0 LINE",
"305 70 LINE",
"25 70 LINE",
"25 0 LINE"
);
}
);
width = 800;
},
{
associatedMasterId = "3D764B9D-F2BF-4097-BA7B-376B3300FA34";
layerId = "D373FFD7-4467-45DE-902B-B87715529FC2";
name = "May 22 18, 11:00";
paths = (
{
closed = 1;
nodes = (
"490 0 LINE",
"779 0 LINE",
"365 520 LINE",
"208 520 LINE",
"89 520 LINE",
"77 501 LINE"
);
},
{
closed = 1;
nodes = (
"32 521 LINE",
"32 451 LINE",
"470 451 LINE",
"470 521 LINE"
);
},
{
closed = 1;
nodes = (
"378 70 LINE",
"378 0 LINE",
"816 0 LINE",
"816 70 LINE"
);
},
{
closed = 1;
nodes = (
"748 520 LINE",
"691 520 LINE",
"440 243 LINE",
"467 197 LINE",
"500 197 LINE",
"760 501 LINE"
);
},
{
closed = 1;
nodes = (
"559 521 LINE",
"559 451 LINE",
"839 451 LINE",
"839 521 LINE"
);
},
{
closed = 1;
nodes = (
"96 1 LINE",
"153 1 LINE",
"404 278 LINE",
"377 324 LINE",
"344 324 LINE",
"84 20 LINE"
);
},
{
closed = 1;
nodes = (
"305 0 LINE",
"305 70 LINE",
"25 70 LINE",
"25 0 LINE"
);
}
);
width = 864;
}
);
leftMetricsKey = i;
rightMetricsKey = i;
unicode = 0078;
},
{
glyphname = z;
lastChange = "2018-05-29 09:13:09 +0000";
layers = (
{
layerId = "3D764B9D-F2BF-4097-BA7B-376B3300FA34";
paths = (
{
closed = 1;
nodes = (
"641 520 LINE",
"564 520 LINE",
"405 520 LINE",
"-2 -1 LINE",
"25 72 LINE",
"25 -38 LINE",
"2 0 LINE",
"271 0 LINE",
"688 542 LINE",
"641 461 LINE"
);
},
{
closed = 1;
nodes = (
"118 70 LINE",
"118 0 LINE",
"662 0 LINE",
"662 70 LINE"
);
},
{
closed = 1;
nodes = (
"604 223 LINE",
"433 0 LINE",
"662 0 LINE",
"662 223 LINE"
);
},
{
closed = 1;
nodes = (
"66 520 LINE",
"66 450 LINE",
"597 450 LINE",
"597 520 LINE"
);
},
{
closed = 1;
nodes = (
"66 520 LINE",
"66 307 LINE",
"101 307 LINE",
"256 520 LINE"
);
}
);
width = 687;
}
);
leftMetricsKey = i;
rightMetricsKey = i;
unicode = 007A;
},
{
glyphname = hyphen;
lastChange = "2018-05-21 14:37:15 +0000";
layers = (
{
layerId = "3D764B9D-F2BF-4097-BA7B-376B3300FA34";
paths = (
{
closed = 1;
nodes = (
"100 202 LINE",
"350 202 LINE",
"350 272 LINE",
"100 272 LINE"
);
}
);
width = 450;
}
);
unicode = 002D;
},
{
glyphname = caron;
lastChange = "2018-05-29 09:31:04 +0000";
layers = (
{
anchors = (
{
name = _top;
position = "{327, 520}";
}
);
layerId = "3D764B9D-F2BF-4097-BA7B-376B3300FA34";
paths = (
{
closed = 1;
nodes = (
"24 700 LINE",
"197 581 LINE",
"413 581 LINE",
"413 591 LINE",
"287 700 LINE"
);
},
{
closed = 1;
nodes = (
"482 700 LINE",
"343 587 LINE",
"380 581 LINE",
"413 581 LINE",
"568 700 LINE"
);
}
);
width = 600;
}
);
unicode = 02C7;
},
{
glyphname = "_oval-left";
lastChange = "2018-05-22 09:59:25 +0000";
layers = (
{
layerId = "3D764B9D-F2BF-4097-BA7B-376B3300FA34";
paths = (
{
closed = 1;
nodes = (
"130 530 OFFCURVE",
"20 406 OFFCURVE",
"20 263 CURVE SMOOTH",
"20 94 OFFCURVE",
"141 -10 OFFCURVE",
"358 -10 CURVE SMOOTH",
"529 -10 OFFCURVE",
"627 107 OFFCURVE",
"627 263 CURVE SMOOTH",
"627 437 OFFCURVE",
"525 530 OFFCURVE",
"348 530 CURVE SMOOTH"
);
},
{
closed = 1;
nodes = (
"522 438 OFFCURVE",
"565 356 OFFCURVE",
"565 257 CURVE SMOOTH",
"565 135 OFFCURVE",
"504 81 OFFCURVE",
"442 81 CURVE SMOOTH",
"381 81 OFFCURVE",
"319 144 OFFCURVE",
"319 264 CURVE SMOOTH",
"319 379 OFFCURVE",
"374 438 OFFCURVE",
"442 438 CURVE SMOOTH"
);
}
);
width = 565;
}
);
},
{
glyphname = "_l-left";
lastChange = "2018-05-21 14:58:58 +0000";
layers = (
{
layerId = "3D764B9D-F2BF-4097-BA7B-376B3300FA34";
paths = (
{
closed = 1;
nodes = (
"-10 700 LINE",
"-10 379 LINE",
"0 359 LINE",
"0 0 LINE",
"248 0 LINE",
"248 700 LINE"
);
},
{
closed = 1;
nodes = (
"248 70 LINE",
"248 0 LINE",
"323 0 LINE",
"323 70 LINE"
);
},
{
closed = 1;
nodes = (
"-85 700 LINE",
"-85 630 LINE",
"-10 630 LINE",
"-10 700 LINE"
);
}
);
width = 348;
}
);
rightMetricsKey = i;
},
{
glyphname = "_l-comp";
lastChange = "2018-05-21 14:59:01 +0000";
layers = (
{
layerId = "3D764B9D-F2BF-4097-BA7B-376B3300FA34";
paths = (
{
closed = 1;
nodes = (
"100 0 LINE",
"354 0 LINE",
"354 700 LINE",
"100 700 LINE"
);
},
{
closed = 1;
nodes = (
"25 630 LINE",
"100 630 LINE",
"100 700 LINE",
"25 700 LINE"
);
},
{
closed = 1;
nodes = (
"25 0 LINE",
"100 0 LINE",
"100 70 LINE",
"25 70 LINE"
);
},
{
closed = 1;
nodes = (
"354 0 LINE",
"429 0 LINE",
"429 70 LINE",
"354 70 LINE"
);
}
);
width = 454;
}
);
leftMetricsKey = i;
rightMetricsKey = i;
},
{
glyphname = _rama;
lastChange = "2018-05-22 09:58:46 +0000";
layers = (
{
guideLines = (
{
position = "{-100, 450}";
},
{
position = "{-100, 380}";
}
);
layerId = "3D764B9D-F2BF-4097-BA7B-376B3300FA34";
paths = (
{
closed = 1;
nodes = (
"-54 407 OFFCURVE",
"-8 420 OFFCURVE",
"32 420 CURVE SMOOTH",
"103 420 OFFCURVE",
"147 381 OFFCURVE",
"147 292 CURVE",
"147 0 LINE",
"402 0 LINE",
"402 340 LINE",
"402 476 OFFCURVE",
"300 535 OFFCURVE",
"174 535 CURVE SMOOTH",
"86 535 OFFCURVE",
"-14 506 OFFCURVE",
"-100 450 CURVE",
"-100 380 LINE"
);
},
{
closed = 1;
nodes = (
"402 0 LINE",
"477 0 LINE",
"477 70 LINE",
"402 70 LINE"
);
}
);
width = 502;
}
);
rightMetricsKey = i;
},
{
glyphname = _del_rame;
lastChange = "2018-05-21 14:59:09 +0000";
layers = (
{
layerId = "3D764B9D-F2BF-4097-BA7B-376B3300FA34";
paths = (
{
closed = 1;
nodes = (
"502 334 LINE",
"502 588 OFFCURVE",
"178 553 OFFCURVE",
"0 430 CURVE",
"0 353 LINE",
"138 447 OFFCURVE",
"254 417 OFFCURVE",
"254 286 CURVE"
);
}
);
width = 502;
}
);
},
{
glyphname = "_l-right";
lastChange = "2018-05-21 14:59:11 +0000";
layers = (
{
layerId = "3D764B9D-F2BF-4097-BA7B-376B3300FA34";
paths = (
{
closed = 1;
nodes = (
"100 0 LINE",
"348 0 LINE",
"348 359 LINE",
"358 379 LINE",
"358 700 LINE",
"100 700 LINE"
);
},
{
closed = 1;
nodes = (
"25 0 LINE",
"100 0 LINE",
"100 70 LINE",
"25 70 LINE"
);
},
{
closed = 1;
nodes = (
"25 700 LINE",
"25 630 LINE",
"100 630 LINE",
"100 700 LINE"
);
}
);
width = 348;
}
);
leftMetricsKey = i;
},
{
glyphname = "_serif-L";
lastChange = "2018-05-21 14:59:14 +0000";
layers = (
{
layerId = "3D764B9D-F2BF-4097-BA7B-376B3300FA34";
paths = (
{
closed = 1;
nodes = (
"0 0 LINE",
"75 0 LINE",
"75 70 LINE",
"0 70 LINE"
);
}
);
width = 75;
}
);
},
{
glyphname = _ce;
lastChange = "2018-05-29 09:30:29 +0000";
layers = (
{
associatedMasterId = "3D764B9D-F2BF-4097-BA7B-376B3300FA34";
layerId = "B808716A-FA40-4761-9E28-9A5508DDAE6D";
name = "May 21 18, 16:36";
paths = (
{
closed = 1;
nodes = (
"722 204 LINE",
"782 193 LINE",
"672 102 OFFCURVE",
"547 60 OFFCURVE",
"467 60 CURVE SMOOTH",
"356 60 OFFCURVE",
"271 136 OFFCURVE",
"271 285 CURVE SMOOTH",
"271 428 OFFCURVE",
"351 465 OFFCURVE",
"414 465 CURVE SMOOTH",
"499 465 OFFCURVE",
"552 398 OFFCURVE",
"550 275 CURVE",
"783 314 LINE",
"793 340 LINE",
"790 371 OFFCURVE",
"777 395 OFFCURVE",
"754 421 CURVE SMOOTH",
"692 491 OFFCURVE",
"595 530 OFFCURVE",
"424 530 CURVE SMOOTH",
"137 530 OFFCURVE",
"0 419 OFFCURVE",
"0 256 CURVE SMOOTH",
"0 76 OFFCURVE",
"147 -10 OFFCURVE",
"417 -10 CURVE SMOOTH",
"607 -10 OFFCURVE",
"724 57 OFFCURVE",
"811 140 CURVE",
"824 89 LINE"
);
}
);
width = 793;
},
{
layerId = "3D764B9D-F2BF-4097-BA7B-376B3300FA34";
paths = (
{
closed = 1;
nodes = (
"722 204 LINE",
"752 193 LINE",
"642 102 OFFCURVE",
"527 60 OFFCURVE",
"447 60 CURVE SMOOTH",
"356 60 OFFCURVE",
"291 116 OFFCURVE",
"291 285 CURVE SMOOTH",
"291 428 OFFCURVE",
"371 465 OFFCURVE",
"424 465 CURVE SMOOTH",
"482 465 OFFCURVE",
"533 408 OFFCURVE",
"539 304 CURVE",
"747 367 LINE",
"721 481 OFFCURVE",
"557 530 OFFCURVE",
"414 530 CURVE SMOOTH",
"157 530 OFFCURVE",
"20 419 OFFCURVE",
"20 256 CURVE SMOOTH",
"20 76 OFFCURVE",
"167 -10 OFFCURVE",
"407 -10 CURVE SMOOTH",
"577 -10 OFFCURVE",
"694 57 OFFCURVE",
"781 140 CURVE",
"794 89 LINE"
);
}
);
visible = 1;
width = 818;
}
);
leftMetricsKey = o;
rightMetricsKey = i;
},
{
glyphname = "_rama-u";
lastChange = "2018-05-21 15:04:04 +0000";
layers = (
{
layerId = "3D764B9D-F2BF-4097-BA7B-376B3300FA34";
paths = (
{
closed = 1;
nodes = (
"536 113 OFFCURVE",
"490 100 OFFCURVE",
"450 100 CURVE SMOOTH",
"379 100 OFFCURVE",
"348 139 OFFCURVE",
"348 228 CURVE",
"348 520 LINE",
"100 520 LINE",
"100 180 LINE",
"100 44 OFFCURVE",
"232 -15 OFFCURVE",
"358 -15 CURVE",
"446 -15 OFFCURVE",
"506 14 OFFCURVE",
"582 70 CURVE",
"582 140 LINE"
);
},
{
closed = 1;
nodes = (
"100 520 LINE",
"25 520 LINE",
"25 450 LINE",
"100 450 LINE"
);
}
);
width = 582;
}
);
},
{
glyphname = _css;
lastChange = "2018-05-21 15:00:04 +0000";
layers = (
{
layerId = "3D764B9D-F2BF-4097-BA7B-376B3300FA34";
paths = (
{
closed = 1;
nodes = (
"0 256 LINE",
"0 76 OFFCURVE",
"147 -10 OFFCURVE",
"417 -10 CURVE SMOOTH",
"587 -10 OFFCURVE",
"704 57 OFFCURVE",
"791 140 CURVE",
"804 89 LINE",
"702 204 LINE",
"762 193 LINE",
"652 102 OFFCURVE",
"527 60 OFFCURVE",
"467 60 CURVE SMOOTH",
"356 60 OFFCURVE",
"271 136 OFFCURVE",
"271 285 CURVE"
);
}
);
width = 600;
}
);
},
{
glyphname = _wobl;
lastChange = "2018-05-21 14:59:48 +0000";
layers = (
{
layerId = "3D764B9D-F2BF-4097-BA7B-376B3300FA34";
paths = (
{
closed = 1;
nodes = (
"271 285 LINE",
"271 428 OFFCURVE",
"351 465 OFFCURVE",
"404 465 CURVE SMOOTH",
"462 465 OFFCURVE",
"513 408 OFFCURVE",
"519 304 CURVE",
"738 327 LINE",
"717 486 OFFCURVE",
"537 530 OFFCURVE",
"394 530 CURVE SMOOTH",
"137 530 OFFCURVE",
"0 419 OFFCURVE",
"0 256 CURVE"
);
}
);
width = 600;
}
);
},
{
glyphname = _postranka;
lastChange = "2018-05-21 14:59:30 +0000";
layers = (
{
layerId = "3D764B9D-F2BF-4097-BA7B-376B3300FA34";
paths = (
{
closed = 1;
nodes = (
"268 0 LINE",
"534 0 LINE",
"547 20 LINE",
"288 700 LINE",
"131 700 LINE",
"12 700 LINE",
"0 681 LINE"
);
}
